G04*
G04 #@! TF.GenerationSoftware,Altium Limited,Altium Designer,22.7.1 (60)*
G04*
G04 Layer_Color=16711935*
%FSLAX43Y43*%
%MOMM*%
G71*
G04*
G04 #@! TF.SameCoordinates,BA50D012-4F98-4CAA-8EAC-1F94F0521628*
G04*
G04*
G04 #@! TF.FilePolarity,Positive*
G04*
G01*
G75*
%ADD92C,0.010*%
D92*
X90038Y3019D02*
Y47019D01*
X89980Y2434D02*
X90038Y3019D01*
X89810Y1871D02*
X89980Y2434D01*
X89532Y1352D02*
X89810Y1871D01*
X89159Y898D02*
X89532Y1352D01*
X88705Y525D02*
X89159Y898D01*
X88186Y247D02*
X88705Y525D01*
X87623Y77D02*
X88186Y247D01*
X87038Y19D02*
X87623Y77D01*
X87038Y50019D02*
X87623Y49961D01*
X88186Y49791D01*
X88705Y49513D01*
X89159Y49140D01*
X89532Y48686D01*
X89810Y48167D01*
X89980Y47604D01*
X90038Y47019D01*
X38D02*
X96Y47604D01*
X266Y48167D01*
X544Y48686D01*
X917Y49140D01*
X1371Y49513D01*
X1890Y49791D01*
X2453Y49961D01*
X3038Y50019D01*
X87038D01*
X3038Y19D02*
X87038D01*
X2453Y77D02*
X3038Y19D01*
X1890Y247D02*
X2453Y77D01*
X1371Y525D02*
X1890Y247D01*
X917Y898D02*
X1371Y525D01*
X544Y1352D02*
X917Y898D01*
X266Y1871D02*
X544Y1352D01*
X96Y2434D02*
X266Y1871D01*
X38Y3019D02*
X96Y2434D01*
X38Y3019D02*
Y47019D01*
M02*
