G04*
G04 #@! TF.GenerationSoftware,Altium Limited,Altium Designer,22.7.1 (60)*
G04*
G04 Layer_Physical_Order=2*
G04 Layer_Color=16711680*
%FSLAX43Y43*%
%MOMM*%
G71*
G04*
G04 #@! TF.SameCoordinates,BA50D012-4F98-4CAA-8EAC-1F94F0521628*
G04*
G04*
G04 #@! TF.FilePolarity,Positive*
G04*
G01*
G75*
G04:AMPARAMS|DCode=66|XSize=1.53mm|YSize=1.02mm|CornerRadius=0.127mm|HoleSize=0mm|Usage=FLASHONLY|Rotation=270.000|XOffset=0mm|YOffset=0mm|HoleType=Round|Shape=RoundedRectangle|*
%AMROUNDEDRECTD66*
21,1,1.530,0.765,0,0,270.0*
21,1,1.275,1.020,0,0,270.0*
1,1,0.255,-0.383,-0.638*
1,1,0.255,-0.383,0.638*
1,1,0.255,0.383,0.638*
1,1,0.255,0.383,-0.638*
%
%ADD66ROUNDEDRECTD66*%
G04:AMPARAMS|DCode=67|XSize=1.53mm|YSize=1.02mm|CornerRadius=0.127mm|HoleSize=0mm|Usage=FLASHONLY|Rotation=180.000|XOffset=0mm|YOffset=0mm|HoleType=Round|Shape=RoundedRectangle|*
%AMROUNDEDRECTD67*
21,1,1.530,0.765,0,0,180.0*
21,1,1.275,1.020,0,0,180.0*
1,1,0.255,-0.638,0.383*
1,1,0.255,0.638,0.383*
1,1,0.255,0.638,-0.383*
1,1,0.255,-0.638,-0.383*
%
%ADD67ROUNDEDRECTD67*%
%ADD81C,0.500*%
%ADD82C,0.300*%
%ADD83C,1.700*%
%ADD84R,1.700X1.700*%
G04:AMPARAMS|DCode=85|XSize=4.9mm|YSize=2.2mm|CornerRadius=0.275mm|HoleSize=0mm|Usage=FLASHONLY|Rotation=90.000|XOffset=0mm|YOffset=0mm|HoleType=Round|Shape=RoundedRectangle|*
%AMROUNDEDRECTD85*
21,1,4.900,1.650,0,0,90.0*
21,1,4.350,2.200,0,0,90.0*
1,1,0.550,0.825,2.175*
1,1,0.550,0.825,-2.175*
1,1,0.550,-0.825,-2.175*
1,1,0.550,-0.825,2.175*
%
%ADD85ROUNDEDRECTD85*%
G04:AMPARAMS|DCode=86|XSize=4.4mm|YSize=2.2mm|CornerRadius=0.275mm|HoleSize=0mm|Usage=FLASHONLY|Rotation=90.000|XOffset=0mm|YOffset=0mm|HoleType=Round|Shape=RoundedRectangle|*
%AMROUNDEDRECTD86*
21,1,4.400,1.650,0,0,90.0*
21,1,3.850,2.200,0,0,90.0*
1,1,0.550,0.825,1.925*
1,1,0.550,0.825,-1.925*
1,1,0.550,-0.825,-1.925*
1,1,0.550,-0.825,1.925*
%
%ADD86ROUNDEDRECTD86*%
G04:AMPARAMS|DCode=87|XSize=4.4mm|YSize=2.2mm|CornerRadius=0.275mm|HoleSize=0mm|Usage=FLASHONLY|Rotation=180.000|XOffset=0mm|YOffset=0mm|HoleType=Round|Shape=RoundedRectangle|*
%AMROUNDEDRECTD87*
21,1,4.400,1.650,0,0,180.0*
21,1,3.850,2.200,0,0,180.0*
1,1,0.550,-1.925,0.825*
1,1,0.550,1.925,0.825*
1,1,0.550,1.925,-0.825*
1,1,0.550,-1.925,-0.825*
%
%ADD87ROUNDEDRECTD87*%
%ADD88C,2.700*%
%ADD89C,1.500*%
%ADD90R,1.700X1.700*%
%ADD91C,0.700*%
G36*
X46477Y43283D02*
X46277Y43180D01*
X46253Y43196D01*
X46125Y43221D01*
X46043D01*
Y42250D01*
Y41279D01*
X46125D01*
X46253Y41304D01*
X46277Y41320D01*
X46477Y41217D01*
X46477Y26703D01*
X46278Y26596D01*
X46150Y26621D01*
X46068D01*
Y25650D01*
Y24679D01*
X46150D01*
X46278Y24704D01*
X46477Y24597D01*
Y20859D01*
X46395Y20693D01*
X46277Y20693D01*
X44295D01*
Y18593D01*
X46277D01*
X46477Y18427D01*
Y11370D01*
X46338Y11271D01*
X46277Y11251D01*
X46175Y11271D01*
X46092D01*
Y10300D01*
Y9329D01*
X46175D01*
X46277Y9349D01*
X46338Y9329D01*
X46477Y9230D01*
X46477Y2808D01*
X46277Y2662D01*
X46110Y2684D01*
X45836Y2648D01*
X45580Y2543D01*
X45361Y2374D01*
X45193Y2155D01*
X45087Y1899D01*
X45051Y1625D01*
X45087Y1351D01*
X45193Y1096D01*
X45361Y877D01*
X45580Y708D01*
X45836Y602D01*
X46110Y566D01*
X46277Y588D01*
X46477Y443D01*
Y228D01*
X30300D01*
X30300Y28000D01*
X20080Y28000D01*
X19971Y28197D01*
X19996Y28325D01*
Y28408D01*
X19025D01*
X18054D01*
Y28325D01*
X18079Y28197D01*
X17970Y28000D01*
X247Y28000D01*
Y46344D01*
X447Y46375D01*
X700Y45580D01*
X1400Y44821D01*
X2400Y44400D01*
X3334Y44300D01*
X4000Y44474D01*
X4732Y44898D01*
X5400Y45700D01*
X5687Y46709D01*
X5639Y47749D01*
X5072Y48788D01*
X4163Y49475D01*
X3617Y49610D01*
X3642Y49810D01*
X46477D01*
X46477Y43283D01*
D02*
G37*
G36*
X29800Y9887D02*
X29600Y9794D01*
X29490Y9868D01*
X29275Y9911D01*
X29060Y9868D01*
X28878Y9747D01*
X28757Y9565D01*
X28739Y9475D01*
X26981Y7817D01*
X26860Y7793D01*
X26678Y7672D01*
X26557Y7490D01*
X26514Y7275D01*
X26557Y7060D01*
X26678Y6878D01*
X26860Y6757D01*
X27075Y6714D01*
X27290Y6757D01*
X27472Y6878D01*
X27593Y7060D01*
X27611Y7150D01*
X29369Y8808D01*
X29490Y8832D01*
X29600Y8906D01*
X29800Y8813D01*
Y228D01*
X3851D01*
X3825Y428D01*
X4000Y474D01*
X4732Y898D01*
X5400Y1700D01*
X5687Y2709D01*
X5639Y3749D01*
X5072Y4788D01*
X4163Y5475D01*
X3100Y5738D01*
X2000Y5537D01*
X1100Y4907D01*
X621Y4200D01*
X491Y4070D01*
X447Y3778D01*
X247Y3793D01*
Y27475D01*
X18039D01*
X18086Y27407D01*
X18127Y27275D01*
X18079Y27203D01*
X18054Y27075D01*
Y26992D01*
X19025D01*
X19996D01*
Y27075D01*
X19971Y27203D01*
X19923Y27275D01*
X19964Y27407D01*
X20011Y27475D01*
X29800D01*
Y9887D01*
D02*
G37*
G36*
X89829Y3863D02*
X89634Y3765D01*
X89629Y3766D01*
X89072Y4788D01*
X88163Y5475D01*
X87100Y5738D01*
X86000Y5537D01*
X85100Y4907D01*
X84621Y4200D01*
X84491Y4070D01*
X84400Y3465D01*
X84248Y3000D01*
X84700Y1580D01*
X85400Y821D01*
X86334Y428D01*
X86293Y228D01*
X47000D01*
Y1060D01*
X47027Y1096D01*
X47133Y1351D01*
X47169Y1625D01*
X47133Y1899D01*
X47027Y2155D01*
X47000Y2190D01*
X47000Y9349D01*
X47139Y9406D01*
X47200Y9419D01*
X47297Y9354D01*
X47425Y9329D01*
X47507D01*
Y10300D01*
Y11271D01*
X47425D01*
X47297Y11246D01*
X47200Y11181D01*
X47139Y11194D01*
X47000Y11251D01*
X47000Y15500D01*
X89829Y15500D01*
Y3863D01*
D02*
G37*
G36*
Y15900D02*
X49975D01*
X49945Y15991D01*
X49942Y16100D01*
X50097Y16203D01*
X50218Y16385D01*
X50261Y16600D01*
X50218Y16815D01*
X50097Y16997D01*
X50047Y17030D01*
Y17270D01*
X50097Y17303D01*
X50218Y17485D01*
X50261Y17700D01*
X50218Y17915D01*
X50097Y18097D01*
X50047Y18130D01*
Y18370D01*
X50097Y18403D01*
X50218Y18585D01*
X50261Y18800D01*
X50218Y19015D01*
X50097Y19197D01*
X49915Y19318D01*
X49700Y19361D01*
X49485Y19318D01*
X49303Y19197D01*
X49277Y19157D01*
X48023D01*
X47997Y19197D01*
X47815Y19318D01*
X47600Y19361D01*
X47385Y19318D01*
X47203Y19197D01*
X47200Y19191D01*
X47000Y19252D01*
Y24664D01*
X47068Y24711D01*
X47200Y24752D01*
X47272Y24704D01*
X47400Y24679D01*
X47483D01*
Y25650D01*
Y26621D01*
X47400D01*
X47272Y26596D01*
X47200Y26548D01*
X47068Y26589D01*
X47000Y26636D01*
Y33800D01*
X89829D01*
Y15900D01*
D02*
G37*
G36*
X86400Y49610D02*
X86000Y49537D01*
X85100Y48907D01*
X84621Y48200D01*
X84491Y48070D01*
X84400Y47465D01*
X84248Y47000D01*
X84700Y45580D01*
X85400Y44821D01*
X86400Y44400D01*
X87334Y44300D01*
X88000Y44474D01*
X88732Y44898D01*
X89400Y45700D01*
X89629Y46506D01*
X89829Y46478D01*
Y34250D01*
X47000Y34250D01*
X47000Y41247D01*
X47009Y41256D01*
X47200Y41336D01*
X47247Y41304D01*
X47375Y41279D01*
X47458D01*
Y42250D01*
Y43221D01*
X47375D01*
X47247Y43196D01*
X47200Y43164D01*
X47009Y43244D01*
X47000Y43253D01*
X47000Y49810D01*
X86382D01*
X86400Y49610D01*
D02*
G37*
%LPC*%
G36*
X45443Y43221D02*
X45360D01*
X45232Y43196D01*
X45124Y43124D01*
X45052Y43015D01*
X45026Y42888D01*
Y42550D01*
X45443D01*
Y43221D01*
D02*
G37*
G36*
Y41950D02*
X45026D01*
Y41612D01*
X45052Y41485D01*
X45124Y41376D01*
X45232Y41304D01*
X45360Y41279D01*
X45443D01*
Y41950D01*
D02*
G37*
G36*
X9405Y40909D02*
X8880D01*
Y38800D01*
X9889D01*
Y40425D01*
X9852Y40610D01*
X9747Y40767D01*
X9590Y40872D01*
X9405Y40909D01*
D02*
G37*
G36*
X8280D02*
X7755D01*
X7570Y40872D01*
X7413Y40767D01*
X7308Y40610D01*
X7271Y40425D01*
Y38800D01*
X8280D01*
Y40909D01*
D02*
G37*
G36*
X9889Y38200D02*
X8880D01*
Y36091D01*
X9405D01*
X9590Y36128D01*
X9747Y36233D01*
X9852Y36390D01*
X9889Y36575D01*
Y38200D01*
D02*
G37*
G36*
X8280D02*
X7271D01*
Y36575D01*
X7308Y36390D01*
X7413Y36233D01*
X7570Y36128D01*
X7755Y36091D01*
X8280D01*
Y38200D01*
D02*
G37*
G36*
X15405Y41159D02*
X13755D01*
X13570Y41122D01*
X13413Y41017D01*
X13308Y40860D01*
X13271Y40675D01*
Y36325D01*
X13308Y36140D01*
X13413Y35983D01*
X13570Y35878D01*
X13755Y35841D01*
X15405D01*
X15590Y35878D01*
X15747Y35983D01*
X15852Y36140D01*
X15889Y36325D01*
Y40675D01*
X15852Y40860D01*
X15747Y41017D01*
X15590Y41122D01*
X15405Y41159D01*
D02*
G37*
G36*
X14005Y35009D02*
X10155D01*
X9970Y34972D01*
X9813Y34867D01*
X9708Y34710D01*
X9671Y34525D01*
Y32875D01*
X9708Y32690D01*
X9813Y32533D01*
X9970Y32428D01*
X10155Y32391D01*
X14005D01*
X14190Y32428D01*
X14347Y32533D01*
X14452Y32690D01*
X14489Y32875D01*
Y34525D01*
X14452Y34710D01*
X14347Y34867D01*
X14190Y34972D01*
X14005Y35009D01*
D02*
G37*
G36*
X38575Y30711D02*
X38360Y30668D01*
X38178Y30547D01*
X38057Y30365D01*
X38014Y30150D01*
X38033Y30057D01*
X32748Y24772D01*
X32670Y24657D01*
X32643Y24520D01*
Y24074D01*
X32603Y24047D01*
X32482Y23865D01*
X32439Y23651D01*
X32482Y23436D01*
X32511Y23392D01*
X32405Y23192D01*
X32195D01*
X32020Y23157D01*
X31871Y23058D01*
X31001Y22187D01*
X30901Y22039D01*
X30866Y21863D01*
Y4228D01*
X30807Y4140D01*
X30764Y3925D01*
X30807Y3710D01*
X30928Y3528D01*
X31110Y3407D01*
X31325Y3364D01*
X31540Y3407D01*
X31722Y3528D01*
X31843Y3710D01*
X31886Y3925D01*
X31843Y4140D01*
X31784Y4228D01*
Y18728D01*
X31984Y18827D01*
X32115Y18726D01*
X32371Y18620D01*
X32645Y18584D01*
X32919Y18620D01*
X33175Y18726D01*
X33394Y18894D01*
X33562Y19114D01*
X33668Y19369D01*
X33704Y19643D01*
X33668Y19917D01*
X33562Y20173D01*
X33394Y20392D01*
X33175Y20560D01*
X32919Y20666D01*
X32645Y20702D01*
X32371Y20666D01*
X32115Y20560D01*
X31984Y20459D01*
X31784Y20558D01*
Y21673D01*
X32385Y22274D01*
X32697D01*
X32785Y22215D01*
X33000Y22172D01*
X33215Y22215D01*
X33397Y22337D01*
X33518Y22518D01*
X33561Y22733D01*
X33518Y22948D01*
X33397Y23130D01*
Y23254D01*
X33518Y23436D01*
X33561Y23651D01*
X33518Y23865D01*
X33397Y24047D01*
X33357Y24074D01*
Y24372D01*
X38574Y29589D01*
X38575Y29589D01*
X38790Y29632D01*
X38972Y29753D01*
X39093Y29935D01*
X39136Y30150D01*
X39093Y30365D01*
X38972Y30547D01*
X38790Y30668D01*
X38575Y30711D01*
D02*
G37*
G36*
X19662Y29424D02*
X19325D01*
Y29008D01*
X19996D01*
Y29090D01*
X19971Y29218D01*
X19899Y29326D01*
X19790Y29399D01*
X19662Y29424D01*
D02*
G37*
G36*
X18725D02*
X18387D01*
X18260Y29399D01*
X18151Y29326D01*
X18079Y29218D01*
X18054Y29090D01*
Y29008D01*
X18725D01*
Y29424D01*
D02*
G37*
G36*
X32700Y29961D02*
X32485Y29918D01*
X32303Y29797D01*
X32182Y29615D01*
X32139Y29400D01*
X32182Y29185D01*
X32241Y29097D01*
Y28003D01*
X32182Y27915D01*
X32139Y27700D01*
X32182Y27485D01*
X32303Y27303D01*
X32485Y27182D01*
X32700Y27139D01*
X32915Y27182D01*
X33097Y27303D01*
X33218Y27485D01*
X33261Y27700D01*
X33218Y27915D01*
X33159Y28003D01*
Y29097D01*
X33218Y29185D01*
X33261Y29400D01*
X33218Y29615D01*
X33097Y29797D01*
X32915Y29918D01*
X32700Y29961D01*
D02*
G37*
G36*
X45468Y26621D02*
X45385D01*
X45257Y26596D01*
X45149Y26524D01*
X45077Y26415D01*
X45051Y26288D01*
Y25950D01*
X45468D01*
Y26621D01*
D02*
G37*
G36*
Y25350D02*
X45051D01*
Y25013D01*
X45077Y24885D01*
X45149Y24776D01*
X45257Y24704D01*
X45385Y24679D01*
X45468D01*
Y25350D01*
D02*
G37*
G36*
X42805Y20702D02*
X42531Y20666D01*
X42275Y20560D01*
X42056Y20392D01*
X41888Y20173D01*
X41782Y19917D01*
X41746Y19643D01*
X41782Y19369D01*
X41888Y19114D01*
X42056Y18894D01*
X42275Y18726D01*
X42531Y18620D01*
X42805Y18584D01*
X43079Y18620D01*
X43335Y18726D01*
X43554Y18894D01*
X43722Y19114D01*
X43828Y19369D01*
X43864Y19643D01*
X43828Y19917D01*
X43722Y20173D01*
X43554Y20392D01*
X43335Y20560D01*
X43079Y20666D01*
X42805Y20702D01*
D02*
G37*
G36*
X40265D02*
X39991Y20666D01*
X39735Y20560D01*
X39516Y20392D01*
X39348Y20173D01*
X39242Y19917D01*
X39206Y19643D01*
X39242Y19369D01*
X39348Y19114D01*
X39516Y18894D01*
X39735Y18726D01*
X39991Y18620D01*
X40265Y18584D01*
X40539Y18620D01*
X40795Y18726D01*
X41014Y18894D01*
X41182Y19114D01*
X41288Y19369D01*
X41324Y19643D01*
X41288Y19917D01*
X41182Y20173D01*
X41014Y20392D01*
X40795Y20560D01*
X40539Y20666D01*
X40265Y20702D01*
D02*
G37*
G36*
X37725D02*
X37451Y20666D01*
X37195Y20560D01*
X36976Y20392D01*
X36808Y20173D01*
X36702Y19917D01*
X36666Y19643D01*
X36702Y19369D01*
X36808Y19114D01*
X36976Y18894D01*
X37195Y18726D01*
X37451Y18620D01*
X37725Y18584D01*
X37999Y18620D01*
X38255Y18726D01*
X38474Y18894D01*
X38642Y19114D01*
X38748Y19369D01*
X38784Y19643D01*
X38748Y19917D01*
X38642Y20173D01*
X38474Y20392D01*
X38255Y20560D01*
X37999Y20666D01*
X37725Y20702D01*
D02*
G37*
G36*
X35185D02*
X34911Y20666D01*
X34655Y20560D01*
X34436Y20392D01*
X34268Y20173D01*
X34162Y19917D01*
X34126Y19643D01*
X34162Y19369D01*
X34268Y19114D01*
X34436Y18894D01*
X34655Y18726D01*
X34911Y18620D01*
X35185Y18584D01*
X35459Y18620D01*
X35715Y18726D01*
X35934Y18894D01*
X36102Y19114D01*
X36208Y19369D01*
X36244Y19643D01*
X36208Y19917D01*
X36102Y20173D01*
X35934Y20392D01*
X35715Y20560D01*
X35459Y20666D01*
X35185Y20702D01*
D02*
G37*
G36*
X45493Y11271D02*
X45410D01*
X45282Y11246D01*
X45174Y11174D01*
X45102Y11065D01*
X45076Y10938D01*
Y10600D01*
X45493D01*
Y11271D01*
D02*
G37*
G36*
Y10000D02*
X45076D01*
Y9663D01*
X45102Y9535D01*
X45174Y9426D01*
X45282Y9354D01*
X45410Y9329D01*
X45493D01*
Y10000D01*
D02*
G37*
G36*
X36500Y13337D02*
X36285Y13295D01*
X36103Y13173D01*
X35982Y12991D01*
X35939Y12777D01*
X35982Y12562D01*
X36103Y12380D01*
X36143Y12354D01*
Y10973D01*
X35430Y10260D01*
X35383Y10269D01*
X35168Y10226D01*
X34986Y10105D01*
X34865Y9923D01*
X34822Y9708D01*
X34865Y9494D01*
X34986Y9312D01*
X35026Y9285D01*
Y7638D01*
X34986Y7611D01*
X34865Y7429D01*
X34822Y7215D01*
X34865Y7000D01*
X34986Y6818D01*
X35168Y6697D01*
X35383Y6654D01*
X35598Y6697D01*
X35779Y6818D01*
X35901Y7000D01*
X35944Y7215D01*
X35901Y7429D01*
X35779Y7611D01*
X35740Y7638D01*
Y9285D01*
X35779Y9312D01*
X35901Y9494D01*
X35944Y9708D01*
X35934Y9755D01*
X36643Y10464D01*
X36843Y10381D01*
Y10131D01*
X36803Y10105D01*
X36682Y9923D01*
X36639Y9708D01*
X36682Y9494D01*
X36803Y9312D01*
X36843Y9285D01*
Y7638D01*
X36803Y7611D01*
X36682Y7429D01*
X36639Y7215D01*
X36682Y7000D01*
X36803Y6818D01*
X36985Y6697D01*
X37200Y6654D01*
X37415Y6697D01*
X37597Y6818D01*
X37689Y6957D01*
X37757Y6972D01*
X37843D01*
X37911Y6957D01*
X38003Y6818D01*
X38185Y6697D01*
X38400Y6654D01*
X38615Y6697D01*
X38797Y6818D01*
X38891Y6960D01*
X38949Y6975D01*
X39035Y6976D01*
X39114Y6960D01*
X39203Y6826D01*
X39385Y6704D01*
X39600Y6662D01*
X39815Y6704D01*
X39997Y6826D01*
X40118Y7008D01*
X40161Y7222D01*
X40118Y7437D01*
X39997Y7619D01*
X39957Y7645D01*
Y9293D01*
X39997Y9319D01*
X40118Y9501D01*
X40161Y9716D01*
X40118Y9930D01*
X39997Y10112D01*
X39815Y10234D01*
X39600Y10276D01*
X39385Y10234D01*
X39203Y10112D01*
X39109Y9970D01*
X39051Y9956D01*
X38965Y9954D01*
X38886Y9970D01*
X38797Y10105D01*
X38615Y10226D01*
X38400Y10269D01*
X38185Y10226D01*
X38003Y10105D01*
X37911Y9966D01*
X37843Y9951D01*
X37757D01*
X37689Y9966D01*
X37597Y10105D01*
X37557Y10131D01*
Y11683D01*
X37597Y11709D01*
X37718Y11891D01*
X37761Y12106D01*
X37718Y12320D01*
X37597Y12502D01*
X37415Y12624D01*
X37200Y12667D01*
X37055Y12804D01*
X37018Y12991D01*
X36897Y13173D01*
X36715Y13295D01*
X36500Y13337D01*
D02*
G37*
G36*
X34460Y2675D02*
X32360D01*
Y575D01*
X34460D01*
Y2675D01*
D02*
G37*
G36*
X43570Y2684D02*
X43296Y2648D01*
X43040Y2543D01*
X42821Y2374D01*
X42653Y2155D01*
X42547Y1899D01*
X42511Y1625D01*
X42547Y1351D01*
X42653Y1096D01*
X42821Y877D01*
X43040Y708D01*
X43296Y602D01*
X43570Y566D01*
X43844Y602D01*
X44100Y708D01*
X44319Y877D01*
X44487Y1096D01*
X44593Y1351D01*
X44629Y1625D01*
X44593Y1899D01*
X44487Y2155D01*
X44319Y2374D01*
X44100Y2543D01*
X43844Y2648D01*
X43570Y2684D01*
D02*
G37*
G36*
X41030D02*
X40756Y2648D01*
X40500Y2543D01*
X40281Y2374D01*
X40113Y2155D01*
X40007Y1899D01*
X39971Y1625D01*
X40007Y1351D01*
X40113Y1096D01*
X40281Y877D01*
X40500Y708D01*
X40756Y602D01*
X41030Y566D01*
X41304Y602D01*
X41560Y708D01*
X41779Y877D01*
X41947Y1096D01*
X42053Y1351D01*
X42089Y1625D01*
X42053Y1899D01*
X41947Y2155D01*
X41779Y2374D01*
X41560Y2543D01*
X41304Y2648D01*
X41030Y2684D01*
D02*
G37*
G36*
X38490D02*
X38216Y2648D01*
X37960Y2543D01*
X37741Y2374D01*
X37573Y2155D01*
X37467Y1899D01*
X37431Y1625D01*
X37467Y1351D01*
X37573Y1096D01*
X37741Y877D01*
X37960Y708D01*
X38216Y602D01*
X38490Y566D01*
X38764Y602D01*
X39020Y708D01*
X39239Y877D01*
X39407Y1096D01*
X39513Y1351D01*
X39549Y1625D01*
X39513Y1899D01*
X39407Y2155D01*
X39239Y2374D01*
X39020Y2543D01*
X38764Y2648D01*
X38490Y2684D01*
D02*
G37*
G36*
X35950D02*
X35676Y2648D01*
X35420Y2543D01*
X35201Y2374D01*
X35033Y2155D01*
X34927Y1899D01*
X34891Y1625D01*
X34927Y1351D01*
X35033Y1096D01*
X35201Y877D01*
X35420Y708D01*
X35676Y602D01*
X35950Y566D01*
X36224Y602D01*
X36480Y708D01*
X36699Y877D01*
X36867Y1096D01*
X36973Y1351D01*
X37009Y1625D01*
X36973Y1899D01*
X36867Y2155D01*
X36699Y2374D01*
X36480Y2543D01*
X36224Y2648D01*
X35950Y2684D01*
D02*
G37*
G36*
X19996Y26392D02*
X19325D01*
Y25976D01*
X19662D01*
X19790Y26001D01*
X19899Y26074D01*
X19971Y26182D01*
X19996Y26310D01*
Y26392D01*
D02*
G37*
G36*
X18725D02*
X18054D01*
Y26310D01*
X18079Y26182D01*
X18151Y26074D01*
X18260Y26001D01*
X18387Y25976D01*
X18725D01*
Y26392D01*
D02*
G37*
G36*
X25400Y21786D02*
X25185Y21743D01*
X25097Y21684D01*
X15453D01*
X15365Y21743D01*
X15150Y21786D01*
X14935Y21743D01*
X14753Y21622D01*
X14632Y21440D01*
X14589Y21225D01*
X14632Y21010D01*
X14753Y20828D01*
X14935Y20707D01*
X15150Y20664D01*
X15365Y20707D01*
X15453Y20766D01*
X25097D01*
X25185Y20707D01*
X25400Y20664D01*
X25615Y20707D01*
X25797Y20828D01*
X25918Y21010D01*
X25961Y21225D01*
X25918Y21440D01*
X25797Y21622D01*
X25615Y21743D01*
X25400Y21786D01*
D02*
G37*
G36*
X13600Y19583D02*
X13352Y19551D01*
X13121Y19455D01*
X12922Y19303D01*
X12770Y19104D01*
X12674Y18873D01*
X12642Y18625D01*
X12674Y18377D01*
X12770Y18146D01*
X12922Y17947D01*
X13121Y17795D01*
X13352Y17699D01*
X13600Y17667D01*
X13848Y17699D01*
X14079Y17795D01*
X14278Y17947D01*
X14430Y18146D01*
X14526Y18377D01*
X14558Y18625D01*
X14526Y18873D01*
X14430Y19104D01*
X14278Y19303D01*
X14079Y19455D01*
X13848Y19551D01*
X13600Y19583D01*
D02*
G37*
G36*
X23580Y18461D02*
X23365Y18418D01*
X23183Y18297D01*
X23061Y18115D01*
X23019Y17900D01*
X23028Y17853D01*
X21248Y16073D01*
X21170Y15957D01*
X21143Y15820D01*
Y7633D01*
X21170Y7496D01*
X21248Y7380D01*
X22833Y5795D01*
X22782Y5564D01*
X22615Y5435D01*
X22446Y5216D01*
X22340Y4961D01*
X22304Y4687D01*
X22340Y4412D01*
X22446Y4157D01*
X22615Y3938D01*
X22834Y3769D01*
X23089Y3664D01*
X23363Y3627D01*
X23638Y3664D01*
X23893Y3769D01*
X24112Y3938D01*
X24281Y4157D01*
X24386Y4412D01*
X24423Y4687D01*
X24401Y4849D01*
X24591Y4943D01*
X24845Y4689D01*
X24844Y4687D01*
X24881Y4412D01*
X24986Y4157D01*
X25155Y3938D01*
X25374Y3769D01*
X25629Y3664D01*
X25903Y3627D01*
X26178Y3664D01*
X26433Y3769D01*
X26652Y3938D01*
X26821Y4157D01*
X26926Y4412D01*
X26963Y4687D01*
X26926Y4961D01*
X26821Y5216D01*
X26652Y5435D01*
X26433Y5604D01*
X26178Y5709D01*
X25903Y5746D01*
X25629Y5709D01*
X25374Y5604D01*
X25155Y5435D01*
X25110Y5432D01*
X22357Y8186D01*
Y8600D01*
X22443Y8652D01*
X22557Y8685D01*
X22710Y8582D01*
X22815Y8561D01*
X24236Y7140D01*
X24257Y7035D01*
X24378Y6853D01*
X24560Y6732D01*
X24775Y6689D01*
X24990Y6732D01*
X25172Y6853D01*
X25214Y6916D01*
X25354Y7012D01*
X25470Y6967D01*
X25560Y6907D01*
X25775Y6864D01*
X25990Y6907D01*
X26172Y7028D01*
X26293Y7210D01*
X26336Y7425D01*
X26293Y7640D01*
X26234Y7728D01*
Y13553D01*
X28242Y15561D01*
X28347Y15582D01*
X28529Y15703D01*
X28650Y15885D01*
X28693Y16100D01*
X28650Y16315D01*
X28529Y16497D01*
X28347Y16618D01*
X28132Y16661D01*
X27917Y16618D01*
X27736Y16497D01*
X27614Y16315D01*
X27593Y16210D01*
X25451Y14067D01*
X25351Y13918D01*
X25316Y13743D01*
Y7772D01*
X25286Y7746D01*
X25241Y7721D01*
X25083Y7707D01*
X25080Y7708D01*
X24990Y7768D01*
X24885Y7789D01*
X23464Y9210D01*
X23443Y9315D01*
X23322Y9497D01*
X23140Y9618D01*
X22925Y9661D01*
X22710Y9618D01*
X22557Y9515D01*
X22443Y9548D01*
X22357Y9600D01*
Y15173D01*
X22872Y15688D01*
X23098Y15631D01*
X23183Y15503D01*
X23365Y15382D01*
X23580Y15339D01*
X23794Y15382D01*
X23976Y15503D01*
X24003Y15543D01*
X25200D01*
X25337Y15570D01*
X25452Y15648D01*
X26853Y17049D01*
X26900Y17039D01*
X27115Y17082D01*
X27296Y17203D01*
X27418Y17385D01*
X27461Y17600D01*
X27418Y17815D01*
X27296Y17996D01*
X27115Y18118D01*
X26900Y18161D01*
X26685Y18118D01*
X26503Y17996D01*
X26382Y17815D01*
X26339Y17600D01*
X26348Y17553D01*
X25052Y16257D01*
X24003D01*
X23976Y16296D01*
X23971Y16300D01*
Y16450D01*
X23992Y16527D01*
X24098Y16685D01*
X24140Y16900D01*
X24098Y17115D01*
X23976Y17297D01*
X23971Y17300D01*
Y17500D01*
X23976Y17503D01*
X24098Y17685D01*
X24140Y17900D01*
X24098Y18115D01*
X23976Y18297D01*
X23794Y18418D01*
X23580Y18461D01*
D02*
G37*
G36*
X13600Y14933D02*
X13352Y14901D01*
X13121Y14805D01*
X12922Y14653D01*
X12770Y14454D01*
X12674Y14223D01*
X12642Y13975D01*
X12674Y13727D01*
X12770Y13496D01*
X12922Y13297D01*
X13121Y13145D01*
X13352Y13049D01*
X13600Y13017D01*
X13848Y13049D01*
X14079Y13145D01*
X14278Y13297D01*
X14430Y13496D01*
X14526Y13727D01*
X14558Y13975D01*
X14526Y14223D01*
X14430Y14454D01*
X14278Y14653D01*
X14079Y14805D01*
X13848Y14901D01*
X13600Y14933D01*
D02*
G37*
G36*
X12640Y11236D02*
X12425Y11193D01*
X12337Y11134D01*
X9003D01*
X8915Y11193D01*
X8700Y11236D01*
X8485Y11193D01*
X8303Y11072D01*
X8182Y10890D01*
X8139Y10675D01*
X8182Y10460D01*
X8303Y10278D01*
X8485Y10157D01*
X8700Y10114D01*
X8915Y10157D01*
X9003Y10216D01*
X12337D01*
X12425Y10157D01*
X12640Y10114D01*
X12855Y10157D01*
X13037Y10278D01*
X13158Y10460D01*
X13201Y10675D01*
X13158Y10890D01*
X13037Y11072D01*
X12855Y11193D01*
X12640Y11236D01*
D02*
G37*
G36*
X28443Y5746D02*
X28169Y5709D01*
X27914Y5604D01*
X27695Y5435D01*
X27526Y5216D01*
X27420Y4961D01*
X27384Y4687D01*
X27420Y4412D01*
X27526Y4157D01*
X27695Y3938D01*
X27914Y3769D01*
X28169Y3664D01*
X28443Y3627D01*
X28718Y3664D01*
X28973Y3769D01*
X29192Y3938D01*
X29361Y4157D01*
X29466Y4412D01*
X29503Y4687D01*
X29466Y4961D01*
X29361Y5216D01*
X29192Y5435D01*
X28973Y5604D01*
X28718Y5709D01*
X28443Y5746D01*
D02*
G37*
G36*
X26203Y3159D02*
Y2447D01*
X26916D01*
X26821Y2676D01*
X26652Y2895D01*
X26433Y3064D01*
X26203Y3159D01*
D02*
G37*
G36*
X25603D02*
X25374Y3064D01*
X25155Y2895D01*
X24986Y2676D01*
X24891Y2447D01*
X25603D01*
Y3159D01*
D02*
G37*
G36*
X26916Y1847D02*
X26203D01*
Y1134D01*
X26433Y1229D01*
X26652Y1398D01*
X26821Y1617D01*
X26916Y1847D01*
D02*
G37*
G36*
X25603D02*
X24891D01*
X24986Y1617D01*
X25155Y1398D01*
X25374Y1229D01*
X25603Y1134D01*
Y1847D01*
D02*
G37*
G36*
X24413Y3197D02*
X22313D01*
Y1097D01*
X24413D01*
Y3197D01*
D02*
G37*
G36*
X28443Y3206D02*
X28169Y3169D01*
X27914Y3064D01*
X27695Y2895D01*
X27526Y2676D01*
X27420Y2421D01*
X27384Y2147D01*
X27420Y1872D01*
X27526Y1617D01*
X27695Y1398D01*
X27914Y1229D01*
X28169Y1124D01*
X28443Y1087D01*
X28718Y1124D01*
X28973Y1229D01*
X29192Y1398D01*
X29361Y1617D01*
X29466Y1872D01*
X29503Y2147D01*
X29466Y2421D01*
X29361Y2676D01*
X29192Y2895D01*
X28973Y3064D01*
X28718Y3169D01*
X28443Y3206D01*
D02*
G37*
G36*
X58180Y13267D02*
X57906Y13231D01*
X57650Y13125D01*
X57431Y12957D01*
X57263Y12738D01*
X57157Y12482D01*
X57121Y12208D01*
X57157Y11934D01*
X57263Y11679D01*
X57431Y11459D01*
X57650Y11291D01*
X57906Y11185D01*
X58180Y11149D01*
X58454Y11185D01*
X58710Y11291D01*
X58929Y11459D01*
X59097Y11679D01*
X59203Y11934D01*
X59239Y12208D01*
X59203Y12482D01*
X59097Y12738D01*
X58929Y12957D01*
X58710Y13125D01*
X58454Y13231D01*
X58180Y13267D01*
D02*
G37*
G36*
X55640D02*
X55366Y13231D01*
X55110Y13125D01*
X54891Y12957D01*
X54723Y12738D01*
X54617Y12482D01*
X54581Y12208D01*
X54617Y11934D01*
X54723Y11679D01*
X54891Y11459D01*
X55110Y11291D01*
X55366Y11185D01*
X55640Y11149D01*
X55914Y11185D01*
X56170Y11291D01*
X56389Y11459D01*
X56557Y11679D01*
X56663Y11934D01*
X56699Y12208D01*
X56663Y12482D01*
X56557Y12738D01*
X56389Y12957D01*
X56170Y13125D01*
X55914Y13231D01*
X55640Y13267D01*
D02*
G37*
G36*
X50560D02*
X50286Y13231D01*
X50030Y13125D01*
X49811Y12957D01*
X49643Y12738D01*
X49537Y12482D01*
X49501Y12208D01*
X49537Y11934D01*
X49643Y11679D01*
X49811Y11459D01*
X50030Y11291D01*
X50286Y11185D01*
X50560Y11149D01*
X50834Y11185D01*
X51090Y11291D01*
X51309Y11459D01*
X51477Y11679D01*
X51583Y11934D01*
X51619Y12208D01*
X51583Y12482D01*
X51477Y12738D01*
X51309Y12957D01*
X51090Y13125D01*
X50834Y13231D01*
X50560Y13267D01*
D02*
G37*
G36*
X53100Y13368D02*
X52800Y13328D01*
X52520Y13213D01*
X52280Y13028D01*
X52095Y12788D01*
X51980Y12508D01*
X51940Y12208D01*
X51980Y11908D01*
X52095Y11628D01*
X52280Y11388D01*
X52520Y11204D01*
X52800Y11088D01*
X53100Y11048D01*
X53400Y11088D01*
X53680Y11204D01*
X53920Y11388D01*
X54105Y11628D01*
X54220Y11908D01*
X54260Y12208D01*
X54220Y12508D01*
X54105Y12788D01*
X53920Y13028D01*
X53680Y13213D01*
X53400Y13328D01*
X53100Y13368D01*
D02*
G37*
G36*
X48190Y11271D02*
X48107D01*
Y10600D01*
X48524D01*
Y10938D01*
X48499Y11065D01*
X48426Y11174D01*
X48318Y11246D01*
X48190Y11271D01*
D02*
G37*
G36*
X78300Y10762D02*
Y10050D01*
X79012D01*
X78917Y10280D01*
X78749Y10499D01*
X78530Y10667D01*
X78300Y10762D01*
D02*
G37*
G36*
X77700Y10762D02*
X77470Y10667D01*
X77251Y10499D01*
X77083Y10280D01*
X76988Y10050D01*
X77700D01*
Y10762D01*
D02*
G37*
G36*
X48524Y10000D02*
X48107D01*
Y9329D01*
X48190D01*
X48318Y9354D01*
X48426Y9426D01*
X48499Y9535D01*
X48524Y9663D01*
Y10000D01*
D02*
G37*
G36*
X77700Y9450D02*
X76988D01*
X77083Y9220D01*
X77251Y9001D01*
X77470Y8833D01*
X77700Y8738D01*
Y9450D01*
D02*
G37*
G36*
X79012D02*
X78300D01*
Y8738D01*
X78530Y8833D01*
X78749Y9001D01*
X78917Y9220D01*
X79012Y9450D01*
D02*
G37*
G36*
X75500Y10809D02*
X75226Y10773D01*
X74970Y10667D01*
X74751Y10499D01*
X74583Y10280D01*
X74477Y10024D01*
X74441Y9750D01*
X74477Y9476D01*
X74583Y9220D01*
X74751Y9001D01*
X74970Y8833D01*
X75226Y8727D01*
X75500Y8691D01*
X75774Y8727D01*
X76030Y8833D01*
X76249Y9001D01*
X76417Y9220D01*
X76523Y9476D01*
X76559Y9750D01*
X76523Y10024D01*
X76417Y10280D01*
X76249Y10499D01*
X76030Y10667D01*
X75774Y10773D01*
X75500Y10809D01*
D02*
G37*
G36*
X50000Y8836D02*
X49785Y8793D01*
X49603Y8672D01*
X49577Y8632D01*
X48196D01*
X48169Y8672D01*
X47988Y8793D01*
X47773Y8836D01*
X47558Y8793D01*
X47376Y8672D01*
X47255Y8490D01*
X47212Y8275D01*
X47255Y8060D01*
X47376Y7878D01*
X47558Y7757D01*
X47773Y7714D01*
X47988Y7757D01*
X48169Y7878D01*
X48196Y7918D01*
X49577D01*
X49603Y7878D01*
X49785Y7757D01*
X50000Y7714D01*
X50215Y7757D01*
X50397Y7878D01*
X50518Y8060D01*
X50561Y8275D01*
X50518Y8490D01*
X50397Y8672D01*
X50215Y8793D01*
X50000Y8836D01*
D02*
G37*
G36*
X58480Y5600D02*
Y4888D01*
X59192D01*
X59097Y5118D01*
X58929Y5337D01*
X58710Y5505D01*
X58480Y5600D01*
D02*
G37*
G36*
X57880Y5600D02*
X57650Y5505D01*
X57431Y5337D01*
X57263Y5118D01*
X57168Y4888D01*
X57880D01*
Y5600D01*
D02*
G37*
G36*
Y4288D02*
X57168D01*
X57263Y4059D01*
X57431Y3839D01*
X57650Y3671D01*
X57880Y3576D01*
Y4288D01*
D02*
G37*
G36*
X59192D02*
X58480D01*
Y3576D01*
X58710Y3671D01*
X58929Y3839D01*
X59097Y4059D01*
X59192Y4288D01*
D02*
G37*
G36*
X51610Y5638D02*
X49510D01*
Y3538D01*
X51610D01*
Y5638D01*
D02*
G37*
G36*
X55640Y5647D02*
X55366Y5611D01*
X55110Y5505D01*
X54891Y5337D01*
X54723Y5118D01*
X54617Y4862D01*
X54581Y4588D01*
X54617Y4314D01*
X54723Y4059D01*
X54891Y3839D01*
X55110Y3671D01*
X55366Y3565D01*
X55640Y3529D01*
X55914Y3565D01*
X56170Y3671D01*
X56389Y3839D01*
X56557Y4059D01*
X56663Y4314D01*
X56699Y4588D01*
X56663Y4862D01*
X56557Y5118D01*
X56389Y5337D01*
X56170Y5505D01*
X55914Y5611D01*
X55640Y5647D01*
D02*
G37*
G36*
X53100D02*
X52826Y5611D01*
X52570Y5505D01*
X52351Y5337D01*
X52183Y5118D01*
X52077Y4862D01*
X52041Y4588D01*
X52077Y4314D01*
X52183Y4059D01*
X52351Y3839D01*
X52570Y3671D01*
X52826Y3565D01*
X53100Y3529D01*
X53374Y3565D01*
X53630Y3671D01*
X53849Y3839D01*
X54017Y4059D01*
X54123Y4314D01*
X54159Y4588D01*
X54123Y4862D01*
X54017Y5118D01*
X53849Y5337D01*
X53630Y5505D01*
X53374Y5611D01*
X53100Y5647D01*
D02*
G37*
G36*
X80657Y27262D02*
Y26550D01*
X81369D01*
X81274Y26780D01*
X81106Y26999D01*
X80886Y27167D01*
X80657Y27262D01*
D02*
G37*
G36*
X80057D02*
X79827Y27167D01*
X79608Y26999D01*
X79440Y26780D01*
X79344Y26550D01*
X80057D01*
Y27262D01*
D02*
G37*
G36*
X48165Y26621D02*
X48083D01*
Y25950D01*
X48499D01*
Y26288D01*
X48473Y26415D01*
X48401Y26524D01*
X48293Y26596D01*
X48165Y26621D01*
D02*
G37*
G36*
X81369Y25950D02*
X80657D01*
Y25238D01*
X80886Y25333D01*
X81106Y25501D01*
X81274Y25720D01*
X81369Y25950D01*
D02*
G37*
G36*
X80057D02*
X79344D01*
X79440Y25720D01*
X79608Y25501D01*
X79827Y25333D01*
X80057Y25238D01*
Y25950D01*
D02*
G37*
G36*
X48499Y25350D02*
X48083D01*
Y24679D01*
X48165D01*
X48293Y24704D01*
X48401Y24776D01*
X48473Y24885D01*
X48499Y25013D01*
Y25350D01*
D02*
G37*
G36*
X80357Y24809D02*
X80083Y24773D01*
X79827Y24667D01*
X79608Y24499D01*
X79440Y24280D01*
X79334Y24024D01*
X79298Y23750D01*
X79334Y23476D01*
X79440Y23220D01*
X79608Y23001D01*
X79827Y22833D01*
X80083Y22727D01*
X80357Y22691D01*
X80631Y22727D01*
X80886Y22833D01*
X81106Y23001D01*
X81274Y23220D01*
X81380Y23476D01*
X81416Y23750D01*
X81380Y24024D01*
X81274Y24280D01*
X81106Y24499D01*
X80886Y24667D01*
X80631Y24773D01*
X80357Y24809D01*
D02*
G37*
G36*
X48140Y43221D02*
X48057D01*
Y42550D01*
X48474D01*
Y42888D01*
X48448Y43015D01*
X48376Y43124D01*
X48268Y43196D01*
X48140Y43221D01*
D02*
G37*
G36*
X48474Y41950D02*
X48057D01*
Y41279D01*
X48140D01*
X48268Y41304D01*
X48376Y41376D01*
X48448Y41485D01*
X48474Y41612D01*
Y41950D01*
D02*
G37*
G36*
X70300Y41312D02*
Y40600D01*
X71012D01*
X70917Y40830D01*
X70749Y41049D01*
X70530Y41217D01*
X70300Y41312D01*
D02*
G37*
G36*
X69700Y41312D02*
X69470Y41217D01*
X69251Y41049D01*
X69083Y40830D01*
X68988Y40600D01*
X69700D01*
Y41312D01*
D02*
G37*
G36*
X71012Y40000D02*
X70300D01*
Y39288D01*
X70530Y39383D01*
X70749Y39551D01*
X70917Y39770D01*
X71012Y40000D01*
D02*
G37*
G36*
X69700D02*
X68988D01*
X69083Y39770D01*
X69251Y39551D01*
X69470Y39383D01*
X69700Y39288D01*
Y40000D01*
D02*
G37*
G36*
X75000Y41359D02*
X74726Y41323D01*
X74470Y41217D01*
X74251Y41049D01*
X74083Y40830D01*
X73977Y40574D01*
X73941Y40300D01*
X73977Y40026D01*
X74083Y39770D01*
X74251Y39551D01*
X74470Y39383D01*
X74726Y39277D01*
X75000Y39241D01*
X75274Y39277D01*
X75530Y39383D01*
X75749Y39551D01*
X75917Y39770D01*
X76023Y40026D01*
X76059Y40300D01*
X76023Y40574D01*
X75917Y40830D01*
X75749Y41049D01*
X75530Y41217D01*
X75274Y41323D01*
X75000Y41359D01*
D02*
G37*
G36*
X72500D02*
X72226Y41323D01*
X71970Y41217D01*
X71751Y41049D01*
X71583Y40830D01*
X71477Y40574D01*
X71441Y40300D01*
X71477Y40026D01*
X71583Y39770D01*
X71751Y39551D01*
X71970Y39383D01*
X72226Y39277D01*
X72500Y39241D01*
X72774Y39277D01*
X73030Y39383D01*
X73249Y39551D01*
X73417Y39770D01*
X73523Y40026D01*
X73559Y40300D01*
X73523Y40574D01*
X73417Y40830D01*
X73249Y41049D01*
X73030Y41217D01*
X72774Y41323D01*
X72500Y41359D01*
D02*
G37*
G36*
X77500Y41460D02*
X77200Y41420D01*
X76920Y41305D01*
X76680Y41120D01*
X76495Y40880D01*
X76380Y40600D01*
X76340Y40300D01*
X76380Y40000D01*
X76495Y39720D01*
X76680Y39480D01*
X76920Y39295D01*
X77200Y39180D01*
X77500Y39140D01*
X77800Y39180D01*
X78080Y39295D01*
X78320Y39480D01*
X78505Y39720D01*
X78620Y40000D01*
X78660Y40300D01*
X78620Y40600D01*
X78505Y40880D01*
X78320Y41120D01*
X78080Y41305D01*
X77800Y41420D01*
X77500Y41460D01*
D02*
G37*
%LPD*%
D66*
X47757Y42250D02*
D03*
X45743Y42250D02*
D03*
X47807Y10300D02*
D03*
X45792D02*
D03*
X47783Y25650D02*
D03*
X45768Y25650D02*
D03*
D67*
X19025Y26692D02*
D03*
Y28708D02*
D03*
D81*
X15150Y21225D02*
X25400D01*
X8700Y10675D02*
X12640D01*
X25775Y13743D02*
X28132Y16100D01*
X25775Y7425D02*
Y13743D01*
X27075Y7275D02*
X29275Y9350D01*
X22925Y9100D02*
X24775Y7250D01*
X31325Y21863D02*
X32195Y22733D01*
X31325Y3925D02*
Y21863D01*
X32700Y27700D02*
Y29400D01*
X32195Y22733D02*
X33000D01*
D82*
X22000Y8038D02*
X25900Y4138D01*
X23360D02*
Y5773D01*
X33000Y24520D02*
X38575Y30095D01*
X33000Y23651D02*
Y24520D01*
X38575Y30095D02*
Y30150D01*
X22000Y8038D02*
Y15320D01*
X21500Y7633D02*
Y15820D01*
X22000Y15320D02*
X23580Y16900D01*
X21500Y7633D02*
X23360Y5773D01*
X21500Y15820D02*
X23580Y17900D01*
X47773Y8275D02*
X50000D01*
X37200Y7323D02*
Y9708D01*
X39600Y7222D02*
Y9716D01*
X38400Y7239D02*
Y9708D01*
Y9733D01*
X47600Y18800D02*
X49700D01*
X47600Y16600D02*
X49700D01*
X47600Y17700D02*
X49700D01*
X35383Y7215D02*
Y9708D01*
X37200D02*
Y12106D01*
X35383Y9708D02*
X36500Y10825D01*
Y12777D01*
X23580Y15900D02*
X25200D01*
X26900Y17600D01*
D83*
X23363Y4687D02*
D03*
X25903D02*
D03*
X28443D02*
D03*
Y2147D02*
D03*
X25903D02*
D03*
X35185Y19643D02*
D03*
X37725D02*
D03*
X42805D02*
D03*
X40265D02*
D03*
X32645D02*
D03*
X78000Y9750D02*
D03*
X75500D02*
D03*
X80357Y26250D02*
D03*
Y23750D02*
D03*
X77500Y40300D02*
D03*
X72500D02*
D03*
X75000D02*
D03*
X70000D02*
D03*
X43570Y1625D02*
D03*
X41030D02*
D03*
X35950D02*
D03*
X38490D02*
D03*
X46110D02*
D03*
X58180Y12208D02*
D03*
X55640D02*
D03*
X53100D02*
D03*
X50560D02*
D03*
X58180Y4588D02*
D03*
X55640D02*
D03*
X53100D02*
D03*
D84*
X23363Y2147D02*
D03*
X45345Y19643D02*
D03*
X33410Y1625D02*
D03*
D85*
X14580Y38500D02*
D03*
D86*
X8580Y38500D02*
D03*
D87*
X12080Y33700D02*
D03*
D88*
X87038Y3019D02*
D03*
Y47019D02*
D03*
X3038D02*
D03*
Y3019D02*
D03*
D89*
X13600Y13975D02*
D03*
Y18625D02*
D03*
D90*
X50560Y4588D02*
D03*
D91*
X28981Y44925D02*
D03*
X32775Y40875D02*
D03*
X38575Y30150D02*
D03*
X20600Y30300D02*
D03*
X15150Y21225D02*
D03*
X25400D02*
D03*
X8700Y10675D02*
D03*
X12640D02*
D03*
X25775Y7425D02*
D03*
X27075Y7275D02*
D03*
X24775Y7250D02*
D03*
X29275Y9350D02*
D03*
X22925Y9100D02*
D03*
X26575Y9425D02*
D03*
X22925Y10075D02*
D03*
X29375Y7505D02*
D03*
X31325Y3925D02*
D03*
X50000Y8275D02*
D03*
X47773D02*
D03*
X56300Y15000D02*
D03*
X23580Y15900D02*
D03*
Y16900D02*
D03*
X30600Y33536D02*
D03*
X32700Y29400D02*
D03*
Y27700D02*
D03*
X27739Y26776D02*
D03*
X65900Y20963D02*
D03*
X54500Y28705D02*
D03*
X49700Y17700D02*
D03*
Y18800D02*
D03*
X38675Y22600D02*
D03*
X29443Y25266D02*
D03*
X20575Y25176D02*
D03*
X24093Y23791D02*
D03*
X16652Y25125D02*
D03*
X18573Y25200D02*
D03*
X23580Y17900D02*
D03*
X18900Y8850D02*
D03*
X18100Y1750D02*
D03*
X19080Y14973D02*
D03*
Y17973D02*
D03*
X8900Y17200D02*
D03*
Y15400D02*
D03*
X65840Y10983D02*
D03*
X65326Y3118D02*
D03*
X69731Y4543D02*
D03*
X49600Y40975D02*
D03*
X63895Y47045D02*
D03*
X60520Y48175D02*
D03*
X53552Y38000D02*
D03*
X61575Y44405D02*
D03*
X62650Y36500D02*
D03*
X40625Y31025D02*
D03*
X31600Y33536D02*
D03*
X22541Y32706D02*
D03*
X70132Y25635D02*
D03*
X76976Y33086D02*
D03*
X75749Y25400D02*
D03*
X49625Y38875D02*
D03*
X66912Y23095D02*
D03*
X61910Y25835D02*
D03*
X67109Y21188D02*
D03*
X65203Y22143D02*
D03*
X62000Y27475D02*
D03*
X61500Y29374D02*
D03*
X61910Y23303D02*
D03*
X49700Y16600D02*
D03*
X47600D02*
D03*
Y18800D02*
D03*
X38400Y7215D02*
D03*
X35383D02*
D03*
X39600Y7222D02*
D03*
X37200Y7215D02*
D03*
Y9708D02*
D03*
X39600Y9716D02*
D03*
X38400Y9708D02*
D03*
X47600Y17700D02*
D03*
X35383Y9708D02*
D03*
X37200Y12106D02*
D03*
X36500Y12777D02*
D03*
X28132Y16100D02*
D03*
X26900Y17600D02*
D03*
Y18700D02*
D03*
X27000Y21188D02*
D03*
X33000Y23651D02*
D03*
Y22733D02*
D03*
X28800Y18403D02*
D03*
M02*
