G04*
G04 #@! TF.GenerationSoftware,Altium Limited,Altium Designer,22.7.1 (60)*
G04*
G04 Layer_Color=16711935*
%FSLAX43Y43*%
%MOMM*%
G71*
G04*
G04 #@! TF.SameCoordinates,BA50D012-4F98-4CAA-8EAC-1F94F0521628*
G04*
G04*
G04 #@! TF.FilePolarity,Negative*
G04*
G01*
G75*
G04:AMPARAMS|DCode=29|XSize=1.83mm|YSize=1.32mm|CornerRadius=0.278mm|HoleSize=0mm|Usage=FLASHONLY|Rotation=270.000|XOffset=0mm|YOffset=0mm|HoleType=Round|Shape=RoundedRectangle|*
%AMROUNDEDRECTD29*
21,1,1.830,0.765,0,0,270.0*
21,1,1.275,1.320,0,0,270.0*
1,1,0.555,-0.383,-0.638*
1,1,0.555,-0.383,0.638*
1,1,0.555,0.383,0.638*
1,1,0.555,0.383,-0.638*
%
%ADD29ROUNDEDRECTD29*%
G04:AMPARAMS|DCode=30|XSize=1.83mm|YSize=1.32mm|CornerRadius=0.278mm|HoleSize=0mm|Usage=FLASHONLY|Rotation=180.000|XOffset=0mm|YOffset=0mm|HoleType=Round|Shape=RoundedRectangle|*
%AMROUNDEDRECTD30*
21,1,1.830,0.765,0,0,180.0*
21,1,1.275,1.320,0,0,180.0*
1,1,0.555,-0.638,0.383*
1,1,0.555,0.638,0.383*
1,1,0.555,0.638,-0.383*
1,1,0.555,-0.638,-0.383*
%
%ADD30ROUNDEDRECTD30*%
%ADD44C,2.000*%
%ADD45R,2.000X2.000*%
%ADD46C,1.903*%
G04:AMPARAMS|DCode=47|XSize=5.2mm|YSize=2.5mm|CornerRadius=0.425mm|HoleSize=0mm|Usage=FLASHONLY|Rotation=90.000|XOffset=0mm|YOffset=0mm|HoleType=Round|Shape=RoundedRectangle|*
%AMROUNDEDRECTD47*
21,1,5.200,1.650,0,0,90.0*
21,1,4.350,2.500,0,0,90.0*
1,1,0.850,0.825,2.175*
1,1,0.850,0.825,-2.175*
1,1,0.850,-0.825,-2.175*
1,1,0.850,-0.825,2.175*
%
%ADD47ROUNDEDRECTD47*%
G04:AMPARAMS|DCode=48|XSize=4.7mm|YSize=2.5mm|CornerRadius=0.425mm|HoleSize=0mm|Usage=FLASHONLY|Rotation=90.000|XOffset=0mm|YOffset=0mm|HoleType=Round|Shape=RoundedRectangle|*
%AMROUNDEDRECTD48*
21,1,4.700,1.650,0,0,90.0*
21,1,3.850,2.500,0,0,90.0*
1,1,0.850,0.825,1.925*
1,1,0.850,0.825,-1.925*
1,1,0.850,-0.825,-1.925*
1,1,0.850,-0.825,1.925*
%
%ADD48ROUNDEDRECTD48*%
G04:AMPARAMS|DCode=49|XSize=4.7mm|YSize=2.5mm|CornerRadius=0.425mm|HoleSize=0mm|Usage=FLASHONLY|Rotation=180.000|XOffset=0mm|YOffset=0mm|HoleType=Round|Shape=RoundedRectangle|*
%AMROUNDEDRECTD49*
21,1,4.700,1.650,0,0,180.0*
21,1,3.850,2.500,0,0,180.0*
1,1,0.850,-1.925,0.825*
1,1,0.850,1.925,0.825*
1,1,0.850,1.925,-0.825*
1,1,0.850,-1.925,-0.825*
%
%ADD49ROUNDEDRECTD49*%
%ADD50C,3.000*%
%ADD51C,1.800*%
%ADD52R,2.000X2.000*%
%ADD53C,1.000*%
D29*
X47757Y42250D02*
D03*
X45743Y42250D02*
D03*
X47807Y10300D02*
D03*
X45792D02*
D03*
X47783Y25650D02*
D03*
X45768Y25650D02*
D03*
D30*
X19025Y26692D02*
D03*
Y28708D02*
D03*
D44*
X23363Y4687D02*
D03*
X25903D02*
D03*
X28443D02*
D03*
Y2147D02*
D03*
X25903D02*
D03*
X35185Y19643D02*
D03*
X42805D02*
D03*
X40265D02*
D03*
X32645D02*
D03*
X78000Y9750D02*
D03*
X75500D02*
D03*
X80357Y26250D02*
D03*
Y23750D02*
D03*
X77500Y40300D02*
D03*
X72500D02*
D03*
X75000D02*
D03*
X70000D02*
D03*
X43570Y1625D02*
D03*
X35950D02*
D03*
X38490D02*
D03*
X46110D02*
D03*
X58180Y12208D02*
D03*
X55640D02*
D03*
X53100D02*
D03*
X50560D02*
D03*
X58180Y4588D02*
D03*
X55640D02*
D03*
X53100D02*
D03*
D45*
X23363Y2147D02*
D03*
X45345Y19643D02*
D03*
X33410Y1625D02*
D03*
D46*
X37725Y19643D02*
D03*
X41030Y1625D02*
D03*
D47*
X14580Y38500D02*
D03*
D48*
X8580Y38500D02*
D03*
D49*
X12080Y33700D02*
D03*
D50*
X87038Y3019D02*
D03*
Y47019D02*
D03*
X3038D02*
D03*
Y3019D02*
D03*
D51*
X13600Y13975D02*
D03*
Y18625D02*
D03*
D52*
X50560Y4588D02*
D03*
D53*
X8900Y17200D02*
D03*
Y15400D02*
D03*
M02*
