G04*
G04 #@! TF.GenerationSoftware,Altium Limited,Altium Designer,22.7.1 (60)*
G04*
G04 Layer_Physical_Order=1*
G04 Layer_Color=16776960*
%FSLAX43Y43*%
%MOMM*%
G71*
G04*
G04 #@! TF.SameCoordinates,BA50D012-4F98-4CAA-8EAC-1F94F0521628*
G04*
G04*
G04 #@! TF.FilePolarity,Positive*
G04*
G01*
G75*
%ADD10C,0.200*%
G04:AMPARAMS|DCode=54|XSize=1.74mm|YSize=2.17mm|CornerRadius=0.217mm|HoleSize=0mm|Usage=FLASHONLY|Rotation=180.000|XOffset=0mm|YOffset=0mm|HoleType=Round|Shape=RoundedRectangle|*
%AMROUNDEDRECTD54*
21,1,1.740,1.735,0,0,180.0*
21,1,1.305,2.170,0,0,180.0*
1,1,0.435,-0.653,0.868*
1,1,0.435,0.653,0.868*
1,1,0.435,0.653,-0.868*
1,1,0.435,-0.653,-0.868*
%
%ADD54ROUNDEDRECTD54*%
G04:AMPARAMS|DCode=55|XSize=1.36mm|YSize=1.81mm|CornerRadius=0.17mm|HoleSize=0mm|Usage=FLASHONLY|Rotation=270.000|XOffset=0mm|YOffset=0mm|HoleType=Round|Shape=RoundedRectangle|*
%AMROUNDEDRECTD55*
21,1,1.360,1.470,0,0,270.0*
21,1,1.020,1.810,0,0,270.0*
1,1,0.340,-0.735,-0.510*
1,1,0.340,-0.735,0.510*
1,1,0.340,0.735,0.510*
1,1,0.340,0.735,-0.510*
%
%ADD55ROUNDEDRECTD55*%
G04:AMPARAMS|DCode=56|XSize=0.94mm|YSize=1.03mm|CornerRadius=0.118mm|HoleSize=0mm|Usage=FLASHONLY|Rotation=90.000|XOffset=0mm|YOffset=0mm|HoleType=Round|Shape=RoundedRectangle|*
%AMROUNDEDRECTD56*
21,1,0.940,0.795,0,0,90.0*
21,1,0.705,1.030,0,0,90.0*
1,1,0.235,0.398,0.353*
1,1,0.235,0.398,-0.353*
1,1,0.235,-0.398,-0.353*
1,1,0.235,-0.398,0.353*
%
%ADD56ROUNDEDRECTD56*%
G04:AMPARAMS|DCode=57|XSize=0.94mm|YSize=1.03mm|CornerRadius=0.118mm|HoleSize=0mm|Usage=FLASHONLY|Rotation=0.000|XOffset=0mm|YOffset=0mm|HoleType=Round|Shape=RoundedRectangle|*
%AMROUNDEDRECTD57*
21,1,0.940,0.795,0,0,0.0*
21,1,0.705,1.030,0,0,0.0*
1,1,0.235,0.353,-0.398*
1,1,0.235,-0.353,-0.398*
1,1,0.235,-0.353,0.398*
1,1,0.235,0.353,0.398*
%
%ADD57ROUNDEDRECTD57*%
G04:AMPARAMS|DCode=58|XSize=2.1mm|YSize=1.4mm|CornerRadius=0.175mm|HoleSize=0mm|Usage=FLASHONLY|Rotation=180.000|XOffset=0mm|YOffset=0mm|HoleType=Round|Shape=RoundedRectangle|*
%AMROUNDEDRECTD58*
21,1,2.100,1.050,0,0,180.0*
21,1,1.750,1.400,0,0,180.0*
1,1,0.350,-0.875,0.525*
1,1,0.350,0.875,0.525*
1,1,0.350,0.875,-0.525*
1,1,0.350,-0.875,-0.525*
%
%ADD58ROUNDEDRECTD58*%
G04:AMPARAMS|DCode=59|XSize=0.61mm|YSize=1.26mm|CornerRadius=0.076mm|HoleSize=0mm|Usage=FLASHONLY|Rotation=270.000|XOffset=0mm|YOffset=0mm|HoleType=Round|Shape=RoundedRectangle|*
%AMROUNDEDRECTD59*
21,1,0.610,1.108,0,0,270.0*
21,1,0.458,1.260,0,0,270.0*
1,1,0.153,-0.554,-0.229*
1,1,0.153,-0.554,0.229*
1,1,0.153,0.554,0.229*
1,1,0.153,0.554,-0.229*
%
%ADD59ROUNDEDRECTD59*%
G04:AMPARAMS|DCode=60|XSize=0.5mm|YSize=0.5mm|CornerRadius=0.063mm|HoleSize=0mm|Usage=FLASHONLY|Rotation=180.000|XOffset=0mm|YOffset=0mm|HoleType=Round|Shape=RoundedRectangle|*
%AMROUNDEDRECTD60*
21,1,0.500,0.375,0,0,180.0*
21,1,0.375,0.500,0,0,180.0*
1,1,0.125,-0.188,0.188*
1,1,0.125,0.188,0.188*
1,1,0.125,0.188,-0.188*
1,1,0.125,-0.188,-0.188*
%
%ADD60ROUNDEDRECTD60*%
G04:AMPARAMS|DCode=61|XSize=1.21mm|YSize=1.46mm|CornerRadius=0.151mm|HoleSize=0mm|Usage=FLASHONLY|Rotation=90.000|XOffset=0mm|YOffset=0mm|HoleType=Round|Shape=RoundedRectangle|*
%AMROUNDEDRECTD61*
21,1,1.210,1.158,0,0,90.0*
21,1,0.907,1.460,0,0,90.0*
1,1,0.303,0.579,0.454*
1,1,0.303,0.579,-0.454*
1,1,0.303,-0.579,-0.454*
1,1,0.303,-0.579,0.454*
%
%ADD61ROUNDEDRECTD61*%
G04:AMPARAMS|DCode=62|XSize=1.21mm|YSize=1.46mm|CornerRadius=0.151mm|HoleSize=0mm|Usage=FLASHONLY|Rotation=180.000|XOffset=0mm|YOffset=0mm|HoleType=Round|Shape=RoundedRectangle|*
%AMROUNDEDRECTD62*
21,1,1.210,1.158,0,0,180.0*
21,1,0.907,1.460,0,0,180.0*
1,1,0.303,-0.454,0.579*
1,1,0.303,0.454,0.579*
1,1,0.303,0.454,-0.579*
1,1,0.303,-0.454,-0.579*
%
%ADD62ROUNDEDRECTD62*%
G04:AMPARAMS|DCode=63|XSize=1mm|YSize=1.4mm|CornerRadius=0.125mm|HoleSize=0mm|Usage=FLASHONLY|Rotation=0.000|XOffset=0mm|YOffset=0mm|HoleType=Round|Shape=RoundedRectangle|*
%AMROUNDEDRECTD63*
21,1,1.000,1.150,0,0,0.0*
21,1,0.750,1.400,0,0,0.0*
1,1,0.250,0.375,-0.575*
1,1,0.250,-0.375,-0.575*
1,1,0.250,-0.375,0.575*
1,1,0.250,0.375,0.575*
%
%ADD63ROUNDEDRECTD63*%
G04:AMPARAMS|DCode=64|XSize=1.28mm|YSize=1.87mm|CornerRadius=0.16mm|HoleSize=0mm|Usage=FLASHONLY|Rotation=90.000|XOffset=0mm|YOffset=0mm|HoleType=Round|Shape=RoundedRectangle|*
%AMROUNDEDRECTD64*
21,1,1.280,1.550,0,0,90.0*
21,1,0.960,1.870,0,0,90.0*
1,1,0.320,0.775,0.480*
1,1,0.320,0.775,-0.480*
1,1,0.320,-0.775,-0.480*
1,1,0.320,-0.775,0.480*
%
%ADD64ROUNDEDRECTD64*%
G04:AMPARAMS|DCode=65|XSize=0.61mm|YSize=1.35mm|CornerRadius=0.076mm|HoleSize=0mm|Usage=FLASHONLY|Rotation=180.000|XOffset=0mm|YOffset=0mm|HoleType=Round|Shape=RoundedRectangle|*
%AMROUNDEDRECTD65*
21,1,0.610,1.198,0,0,180.0*
21,1,0.458,1.350,0,0,180.0*
1,1,0.153,-0.229,0.599*
1,1,0.153,0.229,0.599*
1,1,0.153,0.229,-0.599*
1,1,0.153,-0.229,-0.599*
%
%ADD65ROUNDEDRECTD65*%
G04:AMPARAMS|DCode=66|XSize=1.53mm|YSize=1.02mm|CornerRadius=0.127mm|HoleSize=0mm|Usage=FLASHONLY|Rotation=270.000|XOffset=0mm|YOffset=0mm|HoleType=Round|Shape=RoundedRectangle|*
%AMROUNDEDRECTD66*
21,1,1.530,0.765,0,0,270.0*
21,1,1.275,1.020,0,0,270.0*
1,1,0.255,-0.383,-0.638*
1,1,0.255,-0.383,0.638*
1,1,0.255,0.383,0.638*
1,1,0.255,0.383,-0.638*
%
%ADD66ROUNDEDRECTD66*%
G04:AMPARAMS|DCode=67|XSize=1.53mm|YSize=1.02mm|CornerRadius=0.127mm|HoleSize=0mm|Usage=FLASHONLY|Rotation=180.000|XOffset=0mm|YOffset=0mm|HoleType=Round|Shape=RoundedRectangle|*
%AMROUNDEDRECTD67*
21,1,1.530,0.765,0,0,180.0*
21,1,1.275,1.020,0,0,180.0*
1,1,0.255,-0.638,0.383*
1,1,0.255,0.638,0.383*
1,1,0.255,0.638,-0.383*
1,1,0.255,-0.638,-0.383*
%
%ADD67ROUNDEDRECTD67*%
G04:AMPARAMS|DCode=68|XSize=1.95mm|YSize=3.4mm|CornerRadius=0.244mm|HoleSize=0mm|Usage=FLASHONLY|Rotation=90.000|XOffset=0mm|YOffset=0mm|HoleType=Round|Shape=RoundedRectangle|*
%AMROUNDEDRECTD68*
21,1,1.950,2.913,0,0,90.0*
21,1,1.463,3.400,0,0,90.0*
1,1,0.488,1.456,0.731*
1,1,0.488,1.456,-0.731*
1,1,0.488,-1.456,-0.731*
1,1,0.488,-1.456,0.731*
%
%ADD68ROUNDEDRECTD68*%
G04:AMPARAMS|DCode=69|XSize=0.68mm|YSize=2.17mm|CornerRadius=0.085mm|HoleSize=0mm|Usage=FLASHONLY|Rotation=270.000|XOffset=0mm|YOffset=0mm|HoleType=Round|Shape=RoundedRectangle|*
%AMROUNDEDRECTD69*
21,1,0.680,2.000,0,0,270.0*
21,1,0.510,2.170,0,0,270.0*
1,1,0.170,-1.000,-0.255*
1,1,0.170,-1.000,0.255*
1,1,0.170,1.000,0.255*
1,1,0.170,1.000,-0.255*
%
%ADD69ROUNDEDRECTD69*%
G04:AMPARAMS|DCode=70|XSize=2.15mm|YSize=4.53mm|CornerRadius=0.269mm|HoleSize=0mm|Usage=FLASHONLY|Rotation=0.000|XOffset=0mm|YOffset=0mm|HoleType=Round|Shape=RoundedRectangle|*
%AMROUNDEDRECTD70*
21,1,2.150,3.993,0,0,0.0*
21,1,1.613,4.530,0,0,0.0*
1,1,0.538,0.806,-1.996*
1,1,0.538,-0.806,-1.996*
1,1,0.538,-0.806,1.996*
1,1,0.538,0.806,1.996*
%
%ADD70ROUNDEDRECTD70*%
G04:AMPARAMS|DCode=71|XSize=0.8mm|YSize=0.575mm|CornerRadius=0.072mm|HoleSize=0mm|Usage=FLASHONLY|Rotation=0.000|XOffset=0mm|YOffset=0mm|HoleType=Round|Shape=RoundedRectangle|*
%AMROUNDEDRECTD71*
21,1,0.800,0.431,0,0,0.0*
21,1,0.656,0.575,0,0,0.0*
1,1,0.144,0.328,-0.216*
1,1,0.144,-0.328,-0.216*
1,1,0.144,-0.328,0.216*
1,1,0.144,0.328,0.216*
%
%ADD71ROUNDEDRECTD71*%
G04:AMPARAMS|DCode=72|XSize=1.1mm|YSize=1.2mm|CornerRadius=0.138mm|HoleSize=0mm|Usage=FLASHONLY|Rotation=0.000|XOffset=0mm|YOffset=0mm|HoleType=Round|Shape=RoundedRectangle|*
%AMROUNDEDRECTD72*
21,1,1.100,0.925,0,0,0.0*
21,1,0.825,1.200,0,0,0.0*
1,1,0.275,0.413,-0.463*
1,1,0.275,-0.413,-0.463*
1,1,0.275,-0.413,0.463*
1,1,0.275,0.413,0.463*
%
%ADD72ROUNDEDRECTD72*%
G04:AMPARAMS|DCode=73|XSize=0.92mm|YSize=1.08mm|CornerRadius=0.115mm|HoleSize=0mm|Usage=FLASHONLY|Rotation=270.000|XOffset=0mm|YOffset=0mm|HoleType=Round|Shape=RoundedRectangle|*
%AMROUNDEDRECTD73*
21,1,0.920,0.850,0,0,270.0*
21,1,0.690,1.080,0,0,270.0*
1,1,0.230,-0.425,-0.345*
1,1,0.230,-0.425,0.345*
1,1,0.230,0.425,0.345*
1,1,0.230,0.425,-0.345*
%
%ADD73ROUNDEDRECTD73*%
G04:AMPARAMS|DCode=74|XSize=0.92mm|YSize=1.08mm|CornerRadius=0.115mm|HoleSize=0mm|Usage=FLASHONLY|Rotation=180.000|XOffset=0mm|YOffset=0mm|HoleType=Round|Shape=RoundedRectangle|*
%AMROUNDEDRECTD74*
21,1,0.920,0.850,0,0,180.0*
21,1,0.690,1.080,0,0,180.0*
1,1,0.230,-0.345,0.425*
1,1,0.230,0.345,0.425*
1,1,0.230,0.345,-0.425*
1,1,0.230,-0.345,-0.425*
%
%ADD74ROUNDEDRECTD74*%
G04:AMPARAMS|DCode=75|XSize=0.5mm|YSize=0.5mm|CornerRadius=0.063mm|HoleSize=0mm|Usage=FLASHONLY|Rotation=270.000|XOffset=0mm|YOffset=0mm|HoleType=Round|Shape=RoundedRectangle|*
%AMROUNDEDRECTD75*
21,1,0.500,0.375,0,0,270.0*
21,1,0.375,0.500,0,0,270.0*
1,1,0.125,-0.188,-0.188*
1,1,0.125,-0.188,0.188*
1,1,0.125,0.188,0.188*
1,1,0.125,0.188,-0.188*
%
%ADD75ROUNDEDRECTD75*%
%ADD76O,1.800X0.250*%
%ADD77O,0.250X1.800*%
G04:AMPARAMS|DCode=78|XSize=1.05mm|YSize=1.07mm|CornerRadius=0.131mm|HoleSize=0mm|Usage=FLASHONLY|Rotation=0.000|XOffset=0mm|YOffset=0mm|HoleType=Round|Shape=RoundedRectangle|*
%AMROUNDEDRECTD78*
21,1,1.050,0.807,0,0,0.0*
21,1,0.788,1.070,0,0,0.0*
1,1,0.263,0.394,-0.404*
1,1,0.263,-0.394,-0.404*
1,1,0.263,-0.394,0.404*
1,1,0.263,0.394,0.404*
%
%ADD78ROUNDEDRECTD78*%
G04:AMPARAMS|DCode=79|XSize=1.76mm|YSize=2.82mm|CornerRadius=0.22mm|HoleSize=0mm|Usage=FLASHONLY|Rotation=0.000|XOffset=0mm|YOffset=0mm|HoleType=Round|Shape=RoundedRectangle|*
%AMROUNDEDRECTD79*
21,1,1.760,2.380,0,0,0.0*
21,1,1.320,2.820,0,0,0.0*
1,1,0.440,0.660,-1.190*
1,1,0.440,-0.660,-1.190*
1,1,0.440,-0.660,1.190*
1,1,0.440,0.660,1.190*
%
%ADD79ROUNDEDRECTD79*%
G04:AMPARAMS|DCode=80|XSize=5.8mm|YSize=2.1mm|CornerRadius=0.525mm|HoleSize=0mm|Usage=FLASHONLY|Rotation=180.000|XOffset=0mm|YOffset=0mm|HoleType=Round|Shape=RoundedRectangle|*
%AMROUNDEDRECTD80*
21,1,5.800,1.050,0,0,180.0*
21,1,4.750,2.100,0,0,180.0*
1,1,1.050,-2.375,0.525*
1,1,1.050,2.375,0.525*
1,1,1.050,2.375,-0.525*
1,1,1.050,-2.375,-0.525*
%
%ADD80ROUNDEDRECTD80*%
%ADD81C,0.500*%
%ADD82C,0.300*%
%ADD83C,1.700*%
%ADD84R,1.700X1.700*%
G04:AMPARAMS|DCode=85|XSize=4.9mm|YSize=2.2mm|CornerRadius=0.275mm|HoleSize=0mm|Usage=FLASHONLY|Rotation=90.000|XOffset=0mm|YOffset=0mm|HoleType=Round|Shape=RoundedRectangle|*
%AMROUNDEDRECTD85*
21,1,4.900,1.650,0,0,90.0*
21,1,4.350,2.200,0,0,90.0*
1,1,0.550,0.825,2.175*
1,1,0.550,0.825,-2.175*
1,1,0.550,-0.825,-2.175*
1,1,0.550,-0.825,2.175*
%
%ADD85ROUNDEDRECTD85*%
G04:AMPARAMS|DCode=86|XSize=4.4mm|YSize=2.2mm|CornerRadius=0.275mm|HoleSize=0mm|Usage=FLASHONLY|Rotation=90.000|XOffset=0mm|YOffset=0mm|HoleType=Round|Shape=RoundedRectangle|*
%AMROUNDEDRECTD86*
21,1,4.400,1.650,0,0,90.0*
21,1,3.850,2.200,0,0,90.0*
1,1,0.550,0.825,1.925*
1,1,0.550,0.825,-1.925*
1,1,0.550,-0.825,-1.925*
1,1,0.550,-0.825,1.925*
%
%ADD86ROUNDEDRECTD86*%
G04:AMPARAMS|DCode=87|XSize=4.4mm|YSize=2.2mm|CornerRadius=0.275mm|HoleSize=0mm|Usage=FLASHONLY|Rotation=180.000|XOffset=0mm|YOffset=0mm|HoleType=Round|Shape=RoundedRectangle|*
%AMROUNDEDRECTD87*
21,1,4.400,1.650,0,0,180.0*
21,1,3.850,2.200,0,0,180.0*
1,1,0.550,-1.925,0.825*
1,1,0.550,1.925,0.825*
1,1,0.550,1.925,-0.825*
1,1,0.550,-1.925,-0.825*
%
%ADD87ROUNDEDRECTD87*%
%ADD88C,2.700*%
%ADD89C,1.500*%
%ADD90R,1.700X1.700*%
%ADD91C,0.700*%
G36*
X16200Y40100D02*
X21150D01*
X21150Y35500D01*
X12400D01*
Y39750D01*
Y41500D01*
X16200D01*
Y40100D01*
D02*
G37*
%LPC*%
G36*
X15405Y41159D02*
X14880D01*
Y38800D01*
X15889D01*
Y40675D01*
X15852Y40860D01*
X15747Y41017D01*
X15590Y41122D01*
X15405Y41159D01*
D02*
G37*
G36*
X14280D02*
X13755D01*
X13570Y41122D01*
X13413Y41017D01*
X13308Y40860D01*
X13271Y40675D01*
Y38800D01*
X14280D01*
Y41159D01*
D02*
G37*
G36*
X20279Y39287D02*
X19123D01*
Y38403D01*
X20732D01*
Y38834D01*
X20697Y39007D01*
X20599Y39154D01*
X20452Y39252D01*
X20279Y39287D01*
D02*
G37*
G36*
X18523D02*
X17367D01*
X17194Y39252D01*
X17047Y39154D01*
X16949Y39007D01*
X16914Y38834D01*
Y38403D01*
X18523D01*
Y39287D01*
D02*
G37*
G36*
X20732Y37803D02*
X19123D01*
Y36919D01*
X20279D01*
X20452Y36954D01*
X20599Y37052D01*
X20697Y37199D01*
X20732Y37372D01*
Y37803D01*
D02*
G37*
G36*
X18523D02*
X16914D01*
Y37372D01*
X16949Y37199D01*
X17047Y37052D01*
X17194Y36954D01*
X17367Y36919D01*
X18523D01*
Y37803D01*
D02*
G37*
G36*
X15889Y38200D02*
X14880D01*
Y35841D01*
X15405D01*
X15590Y35878D01*
X15747Y35983D01*
X15852Y36140D01*
X15889Y36325D01*
Y38200D01*
D02*
G37*
G36*
X14280D02*
X13271D01*
Y36325D01*
X13308Y36140D01*
X13413Y35983D01*
X13570Y35878D01*
X13755Y35841D01*
X14280D01*
Y38200D01*
D02*
G37*
%LPD*%
D10*
X9238Y8837D02*
Y9637D01*
X25363Y13989D02*
X32911D01*
X17280Y18473D02*
Y19643D01*
X16652Y20271D02*
X17280Y19643D01*
X16652Y20271D02*
Y22166D01*
X27875Y12973D02*
X32761D01*
X25380D02*
X27875D01*
X27925Y12923D01*
Y10950D02*
Y12923D01*
X25693Y9425D02*
X26575D01*
X24093D02*
Y11659D01*
X23580Y10730D02*
Y11673D01*
X22925Y10075D02*
X23580Y10730D01*
X24080Y11673D02*
X24093Y11659D01*
X27165Y3425D02*
X28443Y2147D01*
X10875Y3425D02*
X27165D01*
X9200Y6100D02*
Y8875D01*
Y5100D02*
Y6100D01*
X9250Y6050D01*
X10800D01*
X9200Y5100D02*
X10875Y3425D01*
X16163Y12643D02*
X20583Y8223D01*
X13717Y11800D02*
X15125Y13208D01*
X25380Y17973D02*
X26326D01*
X25380Y18473D02*
X25400Y18493D01*
Y20000D01*
X25363Y13989D02*
X25380Y13973D01*
X28440Y1598D02*
Y1675D01*
X11400Y11800D02*
X13717D01*
X19053Y13473D02*
X21480Y15900D01*
X23580D02*
X23600D01*
X21480D02*
X23580D01*
X23600D02*
X23700Y16000D01*
X17280Y13473D02*
X19053D01*
X23580Y16900D02*
X24153Y17473D01*
X25380D01*
X17280Y14973D02*
X19080D01*
X20580Y19773D02*
Y22166D01*
X9238Y9637D02*
X11400Y11800D01*
X23580Y17900D02*
X24080Y18400D01*
X13600Y18625D02*
X15752Y16473D01*
X17280D01*
X15598Y15973D02*
X17280D01*
X13600Y13975D02*
X15598Y15973D01*
X16163Y12973D02*
X17280D01*
X16163Y12643D02*
Y12973D01*
X24080Y18400D02*
Y19773D01*
X19080Y17973D02*
Y19773D01*
X47600Y18800D02*
X48300Y18100D01*
Y16381D02*
Y18100D01*
X33135Y14973D02*
X38400Y9708D01*
X36942Y9023D02*
X38907D01*
X39600Y9716D01*
X40542Y8623D02*
X48300Y16381D01*
X25380Y14473D02*
X33000D01*
X37200Y10273D01*
Y9708D02*
Y10273D01*
X25380Y13473D02*
X32827D01*
X34733Y9131D02*
X35241Y8623D01*
X40542D01*
X34733Y9131D02*
Y11001D01*
X32761Y12973D02*
X34733Y11001D01*
X35383Y9708D02*
Y10917D01*
X32827Y13473D02*
X35383Y10917D01*
X36300Y9665D02*
X36942Y9023D01*
X36300Y9665D02*
Y10600D01*
X32911Y13989D02*
X36300Y10600D01*
X26326Y17973D02*
X26900Y18547D01*
Y18700D01*
X25380Y15973D02*
X26287D01*
X28014Y17700D01*
X25380Y15473D02*
X26352D01*
X28179Y17300D01*
X31100Y14973D02*
Y16100D01*
X31100Y14973D02*
X31100Y14973D01*
X25380Y14973D02*
X31100D01*
X33135D01*
X28179Y17300D02*
X37922D01*
X28014Y17700D02*
X35782D01*
X37725Y19643D01*
X37922Y17300D02*
X40265Y19643D01*
X18580Y19773D02*
Y22162D01*
X18575Y22166D02*
X18580Y22162D01*
X14160Y8975D02*
X15000D01*
X15125Y8850D01*
X15900D01*
X15685Y9935D02*
X15900Y9719D01*
Y8850D02*
Y9719D01*
X15125Y13208D02*
Y14750D01*
X15848Y15473D01*
X17280D01*
X15685Y9935D02*
Y13921D01*
X16237Y14473D01*
X17280D01*
X20583Y8223D02*
X47721D01*
X47773Y8275D01*
D54*
X28975Y39070D02*
D03*
Y42830D02*
D03*
D55*
X35625Y39075D02*
D03*
X32775D02*
D03*
X43475Y22600D02*
D03*
X40625D02*
D03*
X43475Y29850D02*
D03*
X40625D02*
D03*
X25390Y30307D02*
D03*
X22540D02*
D03*
X25993Y26776D02*
D03*
X23143D02*
D03*
D56*
X62650Y38003D02*
D03*
Y39603D02*
D03*
Y45400D02*
D03*
Y47000D02*
D03*
X16652Y22166D02*
D03*
Y23766D02*
D03*
X18575Y22166D02*
D03*
Y23766D02*
D03*
X10300Y17200D02*
D03*
Y18800D02*
D03*
Y15400D02*
D03*
Y13800D02*
D03*
X53000Y27105D02*
D03*
Y28705D02*
D03*
D57*
X54915Y38073D02*
D03*
X56515D02*
D03*
X63257Y20963D02*
D03*
X64857D02*
D03*
X24093Y9425D02*
D03*
X25693D02*
D03*
X25400Y20000D02*
D03*
X27000D02*
D03*
X15900Y8850D02*
D03*
X17500D02*
D03*
D58*
X10800Y6050D02*
D03*
X19900D02*
D03*
X10800Y1750D02*
D03*
X19900D02*
D03*
D59*
X22893Y22841D02*
D03*
Y24741D02*
D03*
X25343D02*
D03*
Y23791D02*
D03*
Y22841D02*
D03*
D60*
X32645Y21400D02*
D03*
X34045D02*
D03*
D61*
X62650Y43345D02*
D03*
Y41655D02*
D03*
X31600Y36594D02*
D03*
Y34904D02*
D03*
X66895Y9195D02*
D03*
Y7505D02*
D03*
D62*
X27753Y23809D02*
D03*
X29443D02*
D03*
X52575Y41000D02*
D03*
X50885D02*
D03*
X58830Y46930D02*
D03*
X60520D02*
D03*
X69932Y21188D02*
D03*
X68242D02*
D03*
X77470Y21950D02*
D03*
X75780D02*
D03*
X69731Y2938D02*
D03*
X71421D02*
D03*
X54790Y15000D02*
D03*
X53100D02*
D03*
X63782Y14820D02*
D03*
X62092D02*
D03*
X63250Y27500D02*
D03*
X64940Y27500D02*
D03*
X65840Y12520D02*
D03*
X67530D02*
D03*
D63*
X33875Y36631D02*
D03*
X35625D02*
D03*
X42250Y25000D02*
D03*
X44000D02*
D03*
X42250Y27132D02*
D03*
X44000D02*
D03*
X29400Y30307D02*
D03*
X27650Y30307D02*
D03*
D64*
X28924Y36536D02*
D03*
Y33536D02*
D03*
X76976Y28628D02*
D03*
Y31628D02*
D03*
D65*
X22550Y39200D02*
D03*
X24450D02*
D03*
X23500Y41200D02*
D03*
X51625Y36875D02*
D03*
X50675Y38875D02*
D03*
X52575D02*
D03*
X64200Y25253D02*
D03*
X65150Y23253D02*
D03*
X63250D02*
D03*
D66*
X58493Y38073D02*
D03*
X60507D02*
D03*
X56857Y46930D02*
D03*
X54842D02*
D03*
X52682Y43975D02*
D03*
X50667D02*
D03*
X69613Y9850D02*
D03*
X71628D02*
D03*
X63900Y12520D02*
D03*
X61885D02*
D03*
X67787Y14810D02*
D03*
X65772D02*
D03*
X71628Y6350D02*
D03*
X69613D02*
D03*
D67*
X22550Y36132D02*
D03*
Y34118D02*
D03*
X64940Y43493D02*
D03*
X64915Y41557D02*
D03*
X77325Y24042D02*
D03*
Y26058D02*
D03*
X64940Y45507D02*
D03*
X64915Y39543D02*
D03*
X66895Y3118D02*
D03*
Y5133D02*
D03*
D68*
X18823Y42303D02*
D03*
Y38103D02*
D03*
D69*
X60080Y40595D02*
D03*
X60080Y41865D02*
D03*
X60080Y43135D02*
D03*
X60080Y44405D02*
D03*
X55220Y40595D02*
D03*
X55220Y41865D02*
D03*
X55220Y43135D02*
D03*
X55220Y44405D02*
D03*
X60140Y23295D02*
D03*
Y24565D02*
D03*
Y25835D02*
D03*
Y27105D02*
D03*
X55280Y23295D02*
D03*
Y24565D02*
D03*
Y25835D02*
D03*
Y27105D02*
D03*
X68370Y26905D02*
D03*
Y25635D02*
D03*
Y24365D02*
D03*
Y23095D02*
D03*
X73230Y26905D02*
D03*
Y25635D02*
D03*
Y24365D02*
D03*
Y23095D02*
D03*
D70*
X67576Y30300D02*
D03*
X74076D02*
D03*
X73400Y18300D02*
D03*
X79900D02*
D03*
D71*
X62595Y30699D02*
D03*
X62595Y29374D02*
D03*
D72*
X65095Y30036D02*
D03*
D73*
X27925Y9350D02*
D03*
Y10950D02*
D03*
X20580Y22166D02*
D03*
Y23766D02*
D03*
D74*
X59625Y21013D02*
D03*
X61225D02*
D03*
X10800Y8875D02*
D03*
X9200D02*
D03*
X29500Y16100D02*
D03*
X31100D02*
D03*
D75*
X31325Y1625D02*
D03*
Y3025D02*
D03*
D76*
X17280Y18473D02*
D03*
Y17973D02*
D03*
Y17473D02*
D03*
Y16973D02*
D03*
Y16473D02*
D03*
Y15973D02*
D03*
Y15473D02*
D03*
Y14973D02*
D03*
Y14473D02*
D03*
Y13973D02*
D03*
Y13473D02*
D03*
Y12973D02*
D03*
X25380D02*
D03*
Y13473D02*
D03*
Y13973D02*
D03*
Y14473D02*
D03*
Y14973D02*
D03*
Y15473D02*
D03*
Y15973D02*
D03*
Y16473D02*
D03*
Y16973D02*
D03*
Y17473D02*
D03*
Y17973D02*
D03*
Y18473D02*
D03*
D77*
X18580Y11673D02*
D03*
X19080D02*
D03*
X19580D02*
D03*
X20080D02*
D03*
X20580D02*
D03*
X21080D02*
D03*
X21580D02*
D03*
X22080D02*
D03*
X22580D02*
D03*
X23080D02*
D03*
X23580D02*
D03*
X24080D02*
D03*
Y19773D02*
D03*
X23580D02*
D03*
X23080D02*
D03*
X22580D02*
D03*
X22080D02*
D03*
X21580D02*
D03*
X21080D02*
D03*
X20580D02*
D03*
X20080D02*
D03*
X19580D02*
D03*
X19080D02*
D03*
X18580D02*
D03*
D78*
X12640Y8975D02*
D03*
X14160D02*
D03*
D79*
X58980Y30036D02*
D03*
X56390D02*
D03*
D80*
X12225Y23750D02*
D03*
Y27650D02*
D03*
D81*
X31600Y36594D02*
X33875D01*
X28975Y44919D02*
X28981Y44925D01*
X28975Y42830D02*
Y44919D01*
Y36587D02*
X28981Y36594D01*
X28924Y36536D02*
X28975Y36587D01*
Y39070D01*
X32775Y39075D02*
Y40875D01*
X24450Y37304D02*
X25218Y36536D01*
X20607Y30307D02*
X22540D01*
X8375Y27600D02*
X12250D01*
X47808Y27117D02*
X52988D01*
X45075Y29850D02*
X47808Y27117D01*
X43475Y29850D02*
X45075D01*
X44140Y27117D02*
X47808D01*
X53100Y14885D02*
X53100D01*
X71524Y2938D02*
Y6246D01*
X48894Y14885D02*
X53100D01*
X45735Y25000D02*
X48135Y22600D01*
X44000Y25000D02*
X45735D01*
X43475Y22600D02*
X48135D01*
X38675D02*
X40625D01*
Y29850D02*
Y31025D01*
X33036Y28495D02*
X41705D01*
X33031Y28500D02*
X33036Y28495D01*
X32369Y28500D02*
X33031D01*
X32364Y28495D02*
X32369Y28500D01*
X29400Y28495D02*
X32364D01*
X29400Y26917D02*
Y28495D01*
X33875Y28600D02*
Y36594D01*
X41705Y28495D02*
X42250Y27950D01*
Y25000D02*
Y27132D01*
Y27950D01*
X48135Y22600D02*
X48894Y21841D01*
X54868Y46930D02*
Y48244D01*
X48335Y46930D02*
X54842D01*
X40530Y39125D02*
X48335Y46930D01*
X54842D02*
X54868D01*
X35675Y39125D02*
X40530D01*
X35625Y39075D02*
X35675Y39125D01*
X35625Y39075D02*
X35625Y39075D01*
X35625Y36631D02*
Y39075D01*
X25655Y30307D02*
Y31130D01*
X30986Y31600D02*
X32700Y29886D01*
X26125Y31600D02*
X30986D01*
X25655Y31130D02*
X26125Y31600D01*
X20600Y30300D02*
X20607Y30307D01*
X22541Y34108D02*
X22550Y34118D01*
X22541Y32706D02*
Y34108D01*
X25400Y20000D02*
X25400Y20000D01*
Y21225D01*
X6390Y25615D02*
X8375Y27600D01*
X6390Y22166D02*
Y25615D01*
X15075Y22166D02*
X16652D01*
X6390D02*
X15075D01*
X15150Y22091D01*
Y21225D02*
Y22091D01*
X6390Y10675D02*
Y22166D01*
X16652D02*
X18575D01*
X12540Y8875D02*
X12640Y8975D01*
Y10675D01*
X6390Y3310D02*
Y10675D01*
X8700D01*
X23325Y474D02*
X29274D01*
X9226D02*
X23325D01*
X23363Y512D01*
Y2147D01*
X25750Y6625D02*
X27100D01*
X25400D02*
X25750D01*
X25775Y6650D01*
Y7425D01*
X27100Y6625D02*
X29050D01*
X27075Y6650D02*
X27100Y6625D01*
X27075Y6650D02*
Y7275D01*
X24775Y7250D02*
X25400Y6625D01*
X29050D02*
X30075Y5600D01*
X27075Y7275D02*
X27125D01*
X27925Y9350D02*
X29275D01*
X30075Y1275D02*
Y5600D01*
X29274Y474D02*
X30075Y1275D01*
X31325Y1625D02*
X33410D01*
X31100D02*
X31325D01*
X6390Y3310D02*
X9226Y474D01*
X31325Y3025D02*
Y3925D01*
X32700Y29400D02*
Y29886D01*
X25218Y36536D02*
X28924D01*
X29400Y28600D02*
Y30307D01*
X59625Y21013D02*
Y21220D01*
Y19617D02*
Y21013D01*
X56695Y27105D02*
X57300Y26500D01*
Y21400D02*
Y26500D01*
Y21400D02*
X59108Y19592D01*
X59600D02*
X69422D01*
X59108D02*
X59600D01*
X59625Y19617D01*
X69924Y20093D02*
Y20689D01*
X69422Y19592D02*
X69924Y20093D01*
X55280Y27105D02*
X56695D01*
X53000D02*
X55280D01*
X52988Y27117D02*
X53000Y27105D01*
X53100Y14885D02*
Y15000D01*
Y12208D02*
Y14885D01*
X25655Y30307D02*
X27650D01*
X26423Y23766D02*
Y24410D01*
X26092Y24741D02*
X26423Y24410D01*
X25343Y24741D02*
X26092D01*
X26423Y23766D02*
X26466Y23809D01*
X26423Y23036D02*
Y23766D01*
X26466Y23809D02*
X27753D01*
X25343Y22841D02*
X26228D01*
X26423Y23036D01*
X10800Y8875D02*
X12540D01*
X10300Y13800D02*
X13425D01*
Y18800D02*
X13600Y18625D01*
X10400Y18800D02*
X13425D01*
X71628Y6350D02*
Y9850D01*
X55723Y49100D02*
X58830D01*
X54868Y48244D02*
X55723Y49100D01*
X58830Y46930D02*
Y49100D01*
X68700D02*
X77500Y40300D01*
X58830Y49100D02*
X68700D01*
X58830Y45605D02*
Y46930D01*
X58075Y44850D02*
X58830Y45605D01*
X58075Y41524D02*
Y44850D01*
X57146Y40595D02*
X58075Y41524D01*
X55220Y40595D02*
X57146D01*
X29400Y30307D02*
X29400Y30307D01*
X28981Y36594D02*
X31600D01*
X24450Y37304D02*
Y39200D01*
X69932Y21188D02*
Y21862D01*
X72435Y24365D01*
X73230D01*
X71524Y6246D02*
X71628Y6350D01*
X71421Y1649D02*
Y2938D01*
X70850Y1078D02*
X71421Y1649D01*
X50922Y1078D02*
X70850D01*
X48894Y3106D02*
X50922Y1078D01*
X48894Y3106D02*
Y14885D01*
Y21841D01*
X32645Y19643D02*
Y21400D01*
X28132Y16100D02*
X29500D01*
X32700Y27700D02*
X34045Y26355D01*
Y21400D02*
Y22643D01*
Y26355D01*
X33000Y22733D02*
X33954D01*
X34045Y22643D01*
X27753Y23809D02*
Y25271D01*
X29400Y26917D01*
X10300Y18900D02*
X10400Y18800D01*
D82*
X65000Y21188D02*
X65225Y20963D01*
X18573Y24063D02*
X18723Y23914D01*
X56560Y35525D02*
Y38073D01*
X40850Y32425D02*
X53460D01*
X38575Y30150D02*
X40850Y32425D01*
X53460D02*
X56560Y35525D01*
X56882Y42239D02*
Y46930D01*
X62650Y47045D02*
X63895Y47045D01*
X60080Y40595D02*
X60300Y40375D01*
Y38280D02*
Y40375D01*
X64800Y39543D02*
X64950Y39393D01*
X62650Y39648D02*
X62755Y39543D01*
X62650Y45355D02*
X62797Y45502D01*
X64940D01*
X64915Y39543D02*
X64950D01*
X64800D02*
X64915D01*
X64950Y43337D02*
X65100Y43487D01*
X62755Y39543D02*
X64800D01*
X65100Y43487D02*
X72338D01*
X22550Y36132D02*
Y39200D01*
Y36107D02*
Y36132D01*
X12250Y27065D02*
Y27600D01*
Y23875D02*
Y25125D01*
X21725Y23225D02*
Y25016D01*
Y23225D02*
X22108Y22841D01*
X22893D01*
X22925Y9100D02*
X23250Y9425D01*
X24093D01*
X30449Y7505D02*
X35950Y2004D01*
X29375Y7505D02*
X30449D01*
X35950Y1625D02*
Y2004D01*
X18100Y1750D02*
X19900D01*
X50000Y8275D02*
X51707D01*
X67787Y13900D02*
Y14810D01*
X67530Y13643D02*
X67787Y13900D01*
X67530Y12520D02*
Y13643D01*
Y12485D02*
Y12520D01*
X65840D02*
Y12739D01*
Y12485D02*
Y12520D01*
X63895Y14810D02*
Y14990D01*
X63715Y14810D02*
X63895Y14990D01*
X63715Y14810D02*
X63895D01*
X63705Y12715D02*
X63895Y12905D01*
Y14810D02*
X65772D01*
X63895Y12905D02*
Y14810D01*
X79600Y22993D02*
X80357Y23750D01*
X79600Y18600D02*
Y22993D01*
X58252Y14820D02*
X61885D01*
X58557Y7505D02*
X66895D01*
X55640Y4588D02*
X58557Y7505D01*
X58585Y10073D02*
X62493D01*
X53100Y4588D02*
X58585Y10073D01*
X55640Y12208D02*
X58252Y14820D01*
X54790Y15000D02*
X56300D01*
X28924Y33536D02*
X30600D01*
X31600D02*
Y34904D01*
Y33526D02*
Y33536D01*
X24093Y23791D02*
X25343D01*
X65225Y20963D02*
X65900D01*
X61225Y21220D02*
X61432Y21013D01*
X63250D02*
Y23253D01*
X61432Y21013D02*
X63250D01*
X53000Y28705D02*
X54500D01*
X56390Y28421D02*
Y30036D01*
X29443Y23809D02*
Y25266D01*
X20575Y25176D02*
X20580Y25171D01*
Y23766D02*
Y25171D01*
X16652Y23766D02*
Y25125D01*
X18573Y24063D02*
Y25200D01*
X18575Y23766D02*
X18723Y23914D01*
X54690Y15000D02*
X54790D01*
X79600Y18600D02*
X79900Y18300D01*
X17600Y8850D02*
X18900D01*
X10300Y17200D02*
X10300Y17200D01*
X8900Y17200D02*
X10300D01*
X8900Y15400D02*
X10300D01*
X23500Y41200D02*
Y42050D01*
X23247Y42303D02*
X23500Y42050D01*
X18823Y42303D02*
X23247D01*
X65840Y10983D02*
Y12485D01*
X65840Y12485D01*
X65326Y3118D02*
X66895D01*
X69731Y4543D02*
X69731Y4543D01*
Y2938D02*
Y4543D01*
X68570Y9850D02*
X69613D01*
X67915Y9195D02*
X68570Y9850D01*
X66895Y9195D02*
X67915D01*
X69613Y9850D02*
Y10894D01*
X66895Y5133D02*
Y7505D01*
X70069Y11350D02*
X73900D01*
X69613Y10894D02*
X70069Y11350D01*
X73900D02*
X75500Y9750D01*
X49600Y40975D02*
X50860D01*
X50885Y41000D01*
X52575Y38875D02*
Y41000D01*
X53275D01*
X54140Y41865D01*
X55220D01*
X53985Y43135D02*
X55220D01*
X53475Y42625D02*
X53985Y43135D01*
X51076Y42625D02*
X53475D01*
X50667Y43034D02*
X51076Y42625D01*
X50667Y43034D02*
Y43975D01*
X53113Y44405D02*
X55220D01*
X52682Y43975D02*
X53113Y44405D01*
X72338Y43487D02*
X75000Y40825D01*
X71243Y41557D02*
X72500Y40300D01*
X64950Y41557D02*
X71243D01*
X62650Y43345D02*
Y45355D01*
X56509Y41865D02*
X56882Y42239D01*
X55220Y41865D02*
X56509Y41865D01*
X60520Y48175D02*
X60520Y46930D01*
X60300Y38280D02*
X60507Y38073D01*
X56560D02*
X58493D01*
X54797Y38000D02*
X54870Y38073D01*
X53552Y38000D02*
X54797D01*
X60500Y46345D02*
X60508Y46337D01*
X75000Y40300D02*
Y40825D01*
X60080Y44405D02*
X61575D01*
X61625Y41655D02*
X62650D01*
X61415Y41865D02*
X61625Y41655D01*
X60080Y41865D02*
X61415D01*
X61760Y43345D02*
X62650D01*
X61550Y43135D02*
X61760Y43345D01*
X60080Y43135D02*
X61550D01*
X62650Y36500D02*
Y37958D01*
Y47045D02*
X62662Y47057D01*
X62650Y39648D02*
Y41655D01*
X60140Y23295D02*
X60148Y23303D01*
X67095Y26905D02*
X68370D01*
X73230D02*
X74478D01*
X74749Y27176D01*
Y29627D01*
X74076Y30300D02*
X74749Y29627D01*
X68370Y25635D02*
X70132D01*
X76976Y31628D02*
Y33086D01*
X73230Y25635D02*
X74735D01*
X76976Y27876D01*
Y28628D01*
X77325Y22395D02*
X77470Y22250D01*
X77325Y22095D02*
Y22395D01*
Y24042D01*
X73230Y23095D02*
X75485D01*
X75780Y22800D01*
Y21950D02*
Y22800D01*
X75749Y25400D02*
X76406Y26058D01*
X77325D01*
X74112Y21950D02*
X75780D01*
X73400Y21238D02*
X74112Y21950D01*
X73400Y18300D02*
Y21238D01*
X67109Y21188D02*
X68242D01*
X65887Y14460D02*
X66055Y14292D01*
X58492Y38675D02*
X58493Y38675D01*
X49625Y38875D02*
X50675D01*
X55065Y41865D02*
X55220Y41865D01*
X66912Y23095D02*
X68370D01*
X60140Y24565D02*
X62685D01*
X63250Y24000D01*
Y23253D02*
Y24000D01*
X60140Y25835D02*
X61910D01*
X66760Y24365D02*
X68370D01*
X66250Y24875D02*
X66760Y24365D01*
X66900Y29624D02*
X67576Y30300D01*
X66900Y27100D02*
X67095Y26905D01*
X66900Y27100D02*
Y29624D01*
X64940Y27500D02*
X65825D01*
X66250Y27075D01*
Y24875D02*
Y27075D01*
X65150Y23253D02*
X65203Y23200D01*
Y22143D02*
Y23200D01*
X63225Y27475D02*
X63250Y27500D01*
X62000Y27475D02*
X63225D01*
X65095Y27655D02*
Y30036D01*
X64940Y27500D02*
X65095Y27655D01*
X61500Y29374D02*
X62595D01*
X57706Y27105D02*
X60140D01*
X56390Y28421D02*
X57706Y27105D01*
X58980Y30036D02*
X59643Y30699D01*
X62595D01*
X60148Y23303D02*
X61910D01*
X63900Y11480D02*
Y12520D01*
X62493Y10073D02*
X63900Y11480D01*
X66895Y7505D02*
X69370D01*
X69613Y7262D01*
Y6350D02*
Y7262D01*
X51707Y8275D02*
X55640Y12208D01*
X40513Y7222D02*
X46110Y1625D01*
X39600Y7222D02*
X40513D01*
X41694Y16600D02*
X47600D01*
X37200Y12106D02*
X41694Y16600D01*
X41423Y17700D02*
X47600D01*
X36500Y12777D02*
X41423Y17700D01*
X53610Y25835D02*
X55280D01*
X49700Y21925D02*
X53610Y25835D01*
X49700Y18800D02*
Y21925D01*
X53400Y24565D02*
X55280D01*
X50400Y21565D02*
X53400Y24565D01*
X50400Y18510D02*
Y21565D01*
X49700Y17810D02*
X50400Y18510D01*
X49700Y17700D02*
Y17810D01*
Y16600D02*
Y16710D01*
X51100Y18110D01*
Y21262D01*
X53133Y23295D01*
X55280D01*
X35383Y6717D02*
Y7215D01*
Y6717D02*
X38490Y3610D01*
Y1625D02*
Y3610D01*
X37200Y6265D02*
Y7215D01*
Y6265D02*
X41030Y2435D01*
Y1625D02*
Y2435D01*
X43325Y1625D02*
X43570D01*
X38400Y6550D02*
Y7215D01*
Y6550D02*
X43325Y1625D01*
X27000Y20000D02*
X27100Y20100D01*
X27000Y20000D02*
Y21188D01*
X26892Y17608D02*
Y17615D01*
X32928Y23651D01*
X33000D01*
X28800Y18403D02*
X28826Y18377D01*
X33919D01*
X35185Y19643D01*
X25993Y26776D02*
X27739D01*
X23143Y25750D02*
Y26776D01*
X22893Y25500D02*
X23143Y25750D01*
X22893Y24741D02*
Y25500D01*
X13025Y25900D02*
X20841D01*
X61885Y12520D02*
Y14820D01*
X12250Y27065D02*
X22855D01*
X23143Y26776D01*
X12250Y25125D02*
X13025Y25900D01*
X20841D02*
X21725Y25016D01*
D83*
X23363Y4687D02*
D03*
X25903D02*
D03*
X28443D02*
D03*
Y2147D02*
D03*
X25903D02*
D03*
X35185Y19643D02*
D03*
X37725D02*
D03*
X42805D02*
D03*
X40265D02*
D03*
X32645D02*
D03*
X78000Y9750D02*
D03*
X75500D02*
D03*
X80357Y26250D02*
D03*
Y23750D02*
D03*
X77500Y40300D02*
D03*
X72500D02*
D03*
X75000D02*
D03*
X70000D02*
D03*
X43570Y1625D02*
D03*
X41030D02*
D03*
X35950D02*
D03*
X38490D02*
D03*
X46110D02*
D03*
X58180Y12208D02*
D03*
X55640D02*
D03*
X53100D02*
D03*
X50560D02*
D03*
X58180Y4588D02*
D03*
X55640D02*
D03*
X53100D02*
D03*
D84*
X23363Y2147D02*
D03*
X45345Y19643D02*
D03*
X33410Y1625D02*
D03*
D85*
X14580Y38500D02*
D03*
D86*
X8580Y38500D02*
D03*
D87*
X12080Y33700D02*
D03*
D88*
X87038Y3019D02*
D03*
Y47019D02*
D03*
X3038D02*
D03*
Y3019D02*
D03*
D89*
X13600Y13975D02*
D03*
Y18625D02*
D03*
D90*
X50560Y4588D02*
D03*
D91*
X28981Y44925D02*
D03*
X32775Y40875D02*
D03*
X38575Y30150D02*
D03*
X20600Y30300D02*
D03*
X15150Y21225D02*
D03*
X25400D02*
D03*
X8700Y10675D02*
D03*
X12640D02*
D03*
X25775Y7425D02*
D03*
X27075Y7275D02*
D03*
X24775Y7250D02*
D03*
X29275Y9350D02*
D03*
X22925Y9100D02*
D03*
X26575Y9425D02*
D03*
X22925Y10075D02*
D03*
X29375Y7505D02*
D03*
X31325Y3925D02*
D03*
X50000Y8275D02*
D03*
X47773D02*
D03*
X56300Y15000D02*
D03*
X23580Y15900D02*
D03*
Y16900D02*
D03*
X30600Y33536D02*
D03*
X32700Y29400D02*
D03*
Y27700D02*
D03*
X27739Y26776D02*
D03*
X65900Y20963D02*
D03*
X54500Y28705D02*
D03*
X49700Y17700D02*
D03*
Y18800D02*
D03*
X38675Y22600D02*
D03*
X29443Y25266D02*
D03*
X20575Y25176D02*
D03*
X24093Y23791D02*
D03*
X16652Y25125D02*
D03*
X18573Y25200D02*
D03*
X23580Y17900D02*
D03*
X18900Y8850D02*
D03*
X18100Y1750D02*
D03*
X19080Y14973D02*
D03*
Y17973D02*
D03*
X8900Y17200D02*
D03*
Y15400D02*
D03*
X65840Y10983D02*
D03*
X65326Y3118D02*
D03*
X69731Y4543D02*
D03*
X49600Y40975D02*
D03*
X63895Y47045D02*
D03*
X60520Y48175D02*
D03*
X53552Y38000D02*
D03*
X61575Y44405D02*
D03*
X62650Y36500D02*
D03*
X40625Y31025D02*
D03*
X31600Y33536D02*
D03*
X22541Y32706D02*
D03*
X70132Y25635D02*
D03*
X76976Y33086D02*
D03*
X75749Y25400D02*
D03*
X49625Y38875D02*
D03*
X66912Y23095D02*
D03*
X61910Y25835D02*
D03*
X67109Y21188D02*
D03*
X65203Y22143D02*
D03*
X62000Y27475D02*
D03*
X61500Y29374D02*
D03*
X61910Y23303D02*
D03*
X49700Y16600D02*
D03*
X47600D02*
D03*
Y18800D02*
D03*
X38400Y7215D02*
D03*
X35383D02*
D03*
X39600Y7222D02*
D03*
X37200Y7215D02*
D03*
Y9708D02*
D03*
X39600Y9716D02*
D03*
X38400Y9708D02*
D03*
X47600Y17700D02*
D03*
X35383Y9708D02*
D03*
X37200Y12106D02*
D03*
X36500Y12777D02*
D03*
X28132Y16100D02*
D03*
X26900Y17600D02*
D03*
Y18700D02*
D03*
X27000Y21188D02*
D03*
X33000Y23651D02*
D03*
Y22733D02*
D03*
X28800Y18403D02*
D03*
M02*
