G04*
G04 #@! TF.GenerationSoftware,Altium Limited,Altium Designer,22.7.1 (60)*
G04*
G04 Layer_Color=32896*
%FSLAX43Y43*%
%MOMM*%
G71*
G04*
G04 #@! TF.SameCoordinates,BA50D012-4F98-4CAA-8EAC-1F94F0521628*
G04*
G04*
G04 #@! TF.FilePolarity,Positive*
G04*
G01*
G75*
%ADD10C,0.200*%
%ADD11C,0.150*%
G36*
X47670Y40950D02*
X47684Y40922D01*
X47699Y40896D01*
X47715Y40875D01*
X47729Y40857D01*
X47740Y40843D01*
X47749Y40834D01*
X47750Y40833D01*
X47752Y40831D01*
X47777Y40809D01*
X47801Y40790D01*
X47822Y40775D01*
X47842Y40762D01*
X47859Y40754D01*
X47870Y40747D01*
X47879Y40744D01*
X47880Y40743D01*
X47881D01*
Y40576D01*
X47842Y40595D01*
X47804Y40616D01*
X47771Y40640D01*
X47743Y40662D01*
X47731Y40672D01*
X47719Y40682D01*
X47709Y40692D01*
X47702Y40699D01*
X47695Y40706D01*
X47691Y40710D01*
X47688Y40713D01*
X47687Y40714D01*
Y40025D01*
X47536D01*
Y40981D01*
X47659D01*
X47670Y40950D01*
D02*
G37*
G36*
X48675Y40025D02*
X48517D01*
Y40423D01*
X48466D01*
X48451Y40421D01*
X48437Y40420D01*
X48425Y40417D01*
X48417Y40415D01*
X48411Y40413D01*
X48409Y40411D01*
X48407D01*
X48397Y40407D01*
X48389Y40400D01*
X48375Y40387D01*
X48369Y40382D01*
X48365Y40376D01*
X48362Y40373D01*
X48361Y40372D01*
X48356Y40366D01*
X48351Y40358D01*
X48344Y40349D01*
X48338Y40339D01*
X48324Y40315D01*
X48310Y40291D01*
X48297Y40269D01*
X48292Y40259D01*
X48286Y40251D01*
X48282Y40243D01*
X48279Y40238D01*
X48276Y40234D01*
Y40232D01*
X48163Y40025D01*
X47973D01*
X48069Y40210D01*
X48079Y40229D01*
X48089Y40249D01*
X48098Y40266D01*
X48107Y40282D01*
X48115Y40296D01*
X48122Y40308D01*
X48135Y40329D01*
X48145Y40345D01*
X48153Y40356D01*
X48158Y40363D01*
X48159Y40365D01*
X48172Y40380D01*
X48186Y40396D01*
X48200Y40410D01*
X48213Y40421D01*
X48224Y40431D01*
X48234Y40438D01*
X48239Y40444D01*
X48242Y40445D01*
X48207Y40454D01*
X48177Y40465D01*
X48151Y40479D01*
X48129Y40494D01*
X48113Y40507D01*
X48100Y40518D01*
X48093Y40527D01*
X48090Y40528D01*
Y40530D01*
X48072Y40558D01*
X48058Y40587D01*
X48048Y40617D01*
X48042Y40645D01*
X48038Y40671D01*
X48036Y40682D01*
Y40692D01*
X48035Y40699D01*
Y40706D01*
Y40709D01*
Y40710D01*
X48036Y40743D01*
X48041Y40771D01*
X48046Y40798D01*
X48052Y40820D01*
X48059Y40837D01*
X48065Y40851D01*
X48069Y40860D01*
X48070Y40862D01*
X48084Y40885D01*
X48100Y40903D01*
X48114Y40919D01*
X48128Y40930D01*
X48141Y40940D01*
X48151Y40947D01*
X48158Y40950D01*
X48160Y40951D01*
X48172Y40955D01*
X48184Y40960D01*
X48213Y40967D01*
X48242Y40971D01*
X48272Y40975D01*
X48299Y40977D01*
X48311D01*
X48321Y40978D01*
X48675D01*
Y40025D01*
D02*
G37*
G36*
X47313Y40796D02*
X46973D01*
X47012Y40734D01*
X47044Y40669D01*
X47074Y40609D01*
X47086Y40579D01*
X47098Y40552D01*
X47107Y40525D01*
X47117Y40503D01*
X47124Y40482D01*
X47131Y40463D01*
X47136Y40449D01*
X47140Y40438D01*
X47141Y40432D01*
X47143Y40430D01*
X47164Y40355D01*
X47179Y40282D01*
X47185Y40246D01*
X47191Y40212D01*
X47195Y40181D01*
X47199Y40152D01*
X47202Y40125D01*
X47205Y40100D01*
X47206Y40079D01*
X47208Y40060D01*
Y40045D01*
X47209Y40033D01*
Y40028D01*
Y40025D01*
X47065D01*
X47064Y40074D01*
X47059Y40125D01*
X47054Y40174D01*
X47051Y40197D01*
X47047Y40220D01*
X47044Y40239D01*
X47041Y40258D01*
X47038Y40275D01*
X47036Y40289D01*
X47033Y40300D01*
X47031Y40308D01*
X47030Y40314D01*
Y40315D01*
X47016Y40375D01*
X46999Y40430D01*
X46990Y40456D01*
X46983Y40482D01*
X46975Y40504D01*
X46966Y40525D01*
X46959Y40545D01*
X46952Y40564D01*
X46945Y40579D01*
X46941Y40592D01*
X46935Y40602D01*
X46933Y40610D01*
X46930Y40614D01*
Y40616D01*
X46917Y40641D01*
X46906Y40665D01*
X46893Y40688D01*
X46882Y40709D01*
X46871Y40727D01*
X46861Y40745D01*
X46851Y40761D01*
X46841Y40776D01*
X46833Y40789D01*
X46825Y40800D01*
X46818Y40809D01*
X46813Y40817D01*
X46807Y40823D01*
X46804Y40829D01*
X46802Y40830D01*
Y40831D01*
Y40965D01*
X47313D01*
Y40796D01*
D02*
G37*
G36*
X47645Y12475D02*
X47659Y12447D01*
X47674Y12421D01*
X47690Y12400D01*
X47704Y12382D01*
X47715Y12368D01*
X47724Y12359D01*
X47725Y12358D01*
X47727Y12356D01*
X47752Y12334D01*
X47776Y12315D01*
X47797Y12300D01*
X47817Y12287D01*
X47834Y12279D01*
X47845Y12272D01*
X47854Y12269D01*
X47855Y12268D01*
X47856D01*
Y12101D01*
X47817Y12120D01*
X47779Y12141D01*
X47746Y12165D01*
X47718Y12187D01*
X47706Y12197D01*
X47694Y12207D01*
X47684Y12217D01*
X47677Y12224D01*
X47670Y12231D01*
X47666Y12235D01*
X47663Y12238D01*
X47662Y12239D01*
Y11550D01*
X47511D01*
Y12506D01*
X47634D01*
X47645Y12475D01*
D02*
G37*
G36*
X47026Y12504D02*
X47049Y12502D01*
X47068Y12495D01*
X47088Y12487D01*
X47123Y12469D01*
X47139Y12459D01*
X47153Y12448D01*
X47166Y12437D01*
X47177Y12427D01*
X47187Y12417D01*
X47195Y12409D01*
X47201Y12401D01*
X47205Y12396D01*
X47208Y12392D01*
X47209Y12390D01*
X47223Y12368D01*
X47235Y12341D01*
X47246Y12313D01*
X47254Y12283D01*
X47268Y12221D01*
X47278Y12159D01*
X47281Y12129D01*
X47284Y12103D01*
X47285Y12079D01*
X47287Y12056D01*
X47288Y12039D01*
Y12025D01*
Y12017D01*
Y12015D01*
Y12014D01*
X47287Y11967D01*
X47285Y11924D01*
X47281Y11884D01*
X47277Y11847D01*
X47270Y11814D01*
X47264Y11784D01*
X47257Y11756D01*
X47250Y11732D01*
X47243Y11711D01*
X47236Y11694D01*
X47229Y11678D01*
X47223Y11666D01*
X47219Y11657D01*
X47215Y11650D01*
X47214Y11646D01*
X47212Y11644D01*
X47197Y11625D01*
X47181Y11608D01*
X47166Y11594D01*
X47149Y11581D01*
X47133Y11570D01*
X47116Y11561D01*
X47101Y11554D01*
X47085Y11549D01*
X47058Y11540D01*
X47047Y11537D01*
X47037Y11536D01*
X47029D01*
X47023Y11534D01*
X47018D01*
X46998Y11536D01*
X46979Y11539D01*
X46961Y11543D01*
X46944Y11547D01*
X46913Y11561D01*
X46888Y11577D01*
X46867Y11592D01*
X46858Y11599D01*
X46851Y11606D01*
X46846Y11611D01*
X46841Y11615D01*
X46840Y11618D01*
X46839Y11619D01*
X46826Y11636D01*
X46815Y11654D01*
X46805Y11673D01*
X46796Y11692D01*
X46784Y11732D01*
X46774Y11769D01*
X46771Y11787D01*
X46769Y11802D01*
X46768Y11818D01*
X46767Y11831D01*
X46765Y11840D01*
Y11847D01*
Y11853D01*
Y11854D01*
X46767Y11880D01*
X46768Y11905D01*
X46771Y11928D01*
X46777Y11950D01*
X46781Y11970D01*
X46786Y11988D01*
X46793Y12005D01*
X46799Y12021D01*
X46806Y12035D01*
X46812Y12048D01*
X46819Y12057D01*
X46823Y12066D01*
X46827Y12073D01*
X46831Y12077D01*
X46833Y12080D01*
X46834Y12081D01*
X46847Y12097D01*
X46861Y12110D01*
X46874Y12121D01*
X46888Y12131D01*
X46901Y12139D01*
X46915Y12146D01*
X46939Y12156D01*
X46961Y12163D01*
X46970Y12165D01*
X46978Y12166D01*
X46985Y12167D01*
X46994D01*
X47009Y12166D01*
X47023Y12165D01*
X47037Y12160D01*
X47049Y12158D01*
X47057Y12153D01*
X47065Y12149D01*
X47070Y12148D01*
X47071Y12146D01*
X47084Y12138D01*
X47095Y12128D01*
X47105Y12118D01*
X47115Y12108D01*
X47122Y12100D01*
X47128Y12093D01*
X47132Y12087D01*
X47133Y12086D01*
X47132Y12115D01*
X47129Y12142D01*
X47126Y12166D01*
X47123Y12187D01*
X47120Y12207D01*
X47116Y12225D01*
X47113Y12241D01*
X47109Y12255D01*
X47106Y12266D01*
X47104Y12276D01*
X47099Y12284D01*
X47098Y12290D01*
X47095Y12296D01*
X47094Y12299D01*
X47092Y12301D01*
X47080Y12320D01*
X47065Y12332D01*
X47053Y12342D01*
X47040Y12348D01*
X47029Y12352D01*
X47020Y12354D01*
X47013Y12355D01*
X47012D01*
X46999Y12354D01*
X46987Y12351D01*
X46977Y12345D01*
X46967Y12338D01*
X46951Y12321D01*
X46941Y12303D01*
X46933Y12283D01*
X46929Y12266D01*
X46927Y12259D01*
X46926Y12253D01*
Y12251D01*
Y12249D01*
X46781Y12269D01*
X46789Y12311D01*
X46799Y12346D01*
X46812Y12377D01*
X46824Y12403D01*
X46837Y12421D01*
X46847Y12435D01*
X46854Y12444D01*
X46857Y12447D01*
X46879Y12466D01*
X46905Y12480D01*
X46929Y12492D01*
X46953Y12499D01*
X46972Y12503D01*
X46989Y12504D01*
X46995Y12506D01*
X47003D01*
X47026Y12504D01*
D02*
G37*
G36*
X48650Y11550D02*
X48492D01*
Y11948D01*
X48441D01*
X48426Y11946D01*
X48412Y11945D01*
X48400Y11942D01*
X48392Y11940D01*
X48386Y11938D01*
X48384Y11936D01*
X48382D01*
X48372Y11932D01*
X48364Y11925D01*
X48350Y11912D01*
X48344Y11907D01*
X48340Y11901D01*
X48337Y11898D01*
X48336Y11897D01*
X48331Y11891D01*
X48326Y11883D01*
X48319Y11874D01*
X48313Y11864D01*
X48299Y11840D01*
X48285Y11816D01*
X48272Y11794D01*
X48267Y11784D01*
X48261Y11776D01*
X48257Y11769D01*
X48254Y11763D01*
X48251Y11759D01*
Y11757D01*
X48138Y11550D01*
X47948D01*
X48044Y11735D01*
X48054Y11754D01*
X48064Y11774D01*
X48073Y11791D01*
X48082Y11807D01*
X48090Y11821D01*
X48097Y11833D01*
X48110Y11854D01*
X48120Y11870D01*
X48128Y11881D01*
X48133Y11888D01*
X48134Y11890D01*
X48147Y11905D01*
X48161Y11921D01*
X48175Y11935D01*
X48188Y11946D01*
X48199Y11956D01*
X48209Y11963D01*
X48214Y11969D01*
X48217Y11970D01*
X48182Y11979D01*
X48152Y11990D01*
X48126Y12004D01*
X48104Y12019D01*
X48088Y12032D01*
X48075Y12043D01*
X48068Y12052D01*
X48065Y12053D01*
Y12055D01*
X48047Y12083D01*
X48033Y12112D01*
X48023Y12142D01*
X48017Y12170D01*
X48013Y12196D01*
X48011Y12207D01*
Y12217D01*
X48010Y12224D01*
Y12231D01*
Y12234D01*
Y12235D01*
X48011Y12268D01*
X48016Y12296D01*
X48021Y12323D01*
X48027Y12345D01*
X48034Y12362D01*
X48040Y12376D01*
X48044Y12385D01*
X48045Y12387D01*
X48059Y12410D01*
X48075Y12428D01*
X48089Y12444D01*
X48103Y12455D01*
X48116Y12465D01*
X48126Y12472D01*
X48133Y12475D01*
X48135Y12476D01*
X48147Y12480D01*
X48159Y12485D01*
X48188Y12492D01*
X48217Y12496D01*
X48247Y12500D01*
X48274Y12502D01*
X48286D01*
X48296Y12503D01*
X48650D01*
Y11550D01*
D02*
G37*
G36*
X47293Y27394D02*
X47172Y27373D01*
X47162Y27386D01*
X47153Y27395D01*
X47143Y27405D01*
X47133Y27412D01*
X47113Y27425D01*
X47095Y27434D01*
X47079Y27438D01*
X47068Y27441D01*
X47059Y27442D01*
X47057D01*
X47038Y27441D01*
X47023Y27435D01*
X47007Y27428D01*
X46996Y27421D01*
X46986Y27412D01*
X46979Y27405D01*
X46975Y27400D01*
X46973Y27398D01*
X46962Y27380D01*
X46954Y27360D01*
X46948Y27338D01*
X46944Y27317D01*
X46941Y27297D01*
X46940Y27281D01*
Y27274D01*
Y27270D01*
Y27267D01*
Y27266D01*
X46941Y27233D01*
X46945Y27204D01*
X46951Y27180D01*
X46957Y27160D01*
X46962Y27146D01*
X46968Y27135D01*
X46972Y27129D01*
X46973Y27126D01*
X46986Y27111D01*
X46999Y27101D01*
X47013Y27092D01*
X47026Y27087D01*
X47036Y27084D01*
X47044Y27083D01*
X47051Y27081D01*
X47052D01*
X47067Y27083D01*
X47079Y27087D01*
X47092Y27092D01*
X47102Y27099D01*
X47110Y27105D01*
X47117Y27111D01*
X47122Y27115D01*
X47123Y27116D01*
X47134Y27130D01*
X47143Y27147D01*
X47150Y27163D01*
X47154Y27178D01*
X47157Y27192D01*
X47160Y27205D01*
X47161Y27212D01*
Y27215D01*
X47310Y27195D01*
X47303Y27152D01*
X47298Y27130D01*
X47292Y27112D01*
X47285Y27095D01*
X47278Y27080D01*
X47271Y27064D01*
X47264Y27052D01*
X47257Y27040D01*
X47250Y27030D01*
X47244Y27022D01*
X47239Y27015D01*
X47234Y27009D01*
X47230Y27005D01*
X47229Y27004D01*
X47227Y27002D01*
X47213Y26991D01*
X47199Y26980D01*
X47171Y26963D01*
X47141Y26951D01*
X47114Y26943D01*
X47090Y26939D01*
X47079Y26936D01*
X47071D01*
X47064Y26934D01*
X47054D01*
X47030Y26936D01*
X47009Y26939D01*
X46988Y26944D01*
X46969Y26951D01*
X46951Y26958D01*
X46935Y26967D01*
X46920Y26977D01*
X46907Y26987D01*
X46896Y26997D01*
X46885Y27006D01*
X46876Y27015D01*
X46869Y27022D01*
X46864Y27029D01*
X46859Y27035D01*
X46858Y27037D01*
X46856Y27039D01*
X46844Y27059D01*
X46833Y27080D01*
X46824Y27099D01*
X46816Y27119D01*
X46803Y27159D01*
X46794Y27194D01*
X46792Y27211D01*
X46790Y27225D01*
X46787Y27238D01*
Y27249D01*
X46786Y27257D01*
Y27264D01*
Y27269D01*
Y27270D01*
X46787Y27298D01*
X46789Y27325D01*
X46793Y27349D01*
X46799Y27373D01*
X46804Y27394D01*
X46811Y27415D01*
X46820Y27434D01*
X46827Y27450D01*
X46834Y27465D01*
X46842Y27477D01*
X46849Y27489D01*
X46855Y27498D01*
X46861Y27505D01*
X46864Y27511D01*
X46866Y27514D01*
X46868Y27515D01*
X46880Y27528D01*
X46893Y27539D01*
X46906Y27549D01*
X46920Y27558D01*
X46947Y27570D01*
X46971Y27580D01*
X46993Y27584D01*
X47002Y27586D01*
X47010Y27587D01*
X47017Y27589D01*
X47026D01*
X47045Y27587D01*
X47064Y27583D01*
X47081Y27579D01*
X47096Y27573D01*
X47110Y27566D01*
X47120Y27562D01*
X47126Y27558D01*
X47129Y27556D01*
X47103Y27720D01*
X46821D01*
Y27890D01*
X47217D01*
X47293Y27394D01*
D02*
G37*
G36*
X47670Y27875D02*
X47684Y27847D01*
X47699Y27821D01*
X47715Y27800D01*
X47729Y27782D01*
X47740Y27768D01*
X47749Y27759D01*
X47750Y27758D01*
X47752Y27756D01*
X47777Y27734D01*
X47801Y27715D01*
X47822Y27700D01*
X47842Y27687D01*
X47859Y27679D01*
X47870Y27672D01*
X47879Y27669D01*
X47880Y27668D01*
X47881D01*
Y27501D01*
X47842Y27520D01*
X47804Y27541D01*
X47771Y27565D01*
X47743Y27587D01*
X47730Y27597D01*
X47719Y27607D01*
X47709Y27617D01*
X47702Y27624D01*
X47695Y27631D01*
X47691Y27635D01*
X47688Y27638D01*
X47687Y27639D01*
Y26950D01*
X47536D01*
Y27906D01*
X47659D01*
X47670Y27875D01*
D02*
G37*
G36*
X48675Y26950D02*
X48517D01*
Y27348D01*
X48466D01*
X48451Y27346D01*
X48437Y27345D01*
X48425Y27342D01*
X48417Y27340D01*
X48411Y27338D01*
X48409Y27336D01*
X48407D01*
X48397Y27332D01*
X48389Y27325D01*
X48375Y27312D01*
X48369Y27307D01*
X48365Y27301D01*
X48362Y27298D01*
X48361Y27297D01*
X48356Y27291D01*
X48351Y27283D01*
X48344Y27274D01*
X48338Y27264D01*
X48324Y27240D01*
X48310Y27216D01*
X48297Y27194D01*
X48292Y27184D01*
X48286Y27176D01*
X48282Y27169D01*
X48279Y27163D01*
X48276Y27159D01*
Y27157D01*
X48163Y26950D01*
X47973D01*
X48069Y27135D01*
X48079Y27154D01*
X48089Y27174D01*
X48098Y27191D01*
X48107Y27207D01*
X48115Y27221D01*
X48122Y27233D01*
X48135Y27254D01*
X48145Y27270D01*
X48153Y27281D01*
X48158Y27288D01*
X48159Y27290D01*
X48172Y27305D01*
X48186Y27321D01*
X48200Y27335D01*
X48213Y27346D01*
X48224Y27356D01*
X48234Y27363D01*
X48239Y27369D01*
X48242Y27370D01*
X48207Y27379D01*
X48177Y27390D01*
X48151Y27404D01*
X48129Y27419D01*
X48113Y27432D01*
X48100Y27443D01*
X48093Y27452D01*
X48090Y27453D01*
Y27455D01*
X48072Y27483D01*
X48058Y27512D01*
X48048Y27542D01*
X48042Y27570D01*
X48038Y27596D01*
X48036Y27607D01*
Y27617D01*
X48035Y27624D01*
Y27631D01*
Y27634D01*
Y27635D01*
X48036Y27668D01*
X48041Y27696D01*
X48046Y27723D01*
X48052Y27745D01*
X48059Y27762D01*
X48065Y27776D01*
X48069Y27785D01*
X48070Y27787D01*
X48084Y27810D01*
X48100Y27828D01*
X48114Y27844D01*
X48128Y27855D01*
X48141Y27865D01*
X48151Y27872D01*
X48158Y27875D01*
X48160Y27876D01*
X48172Y27880D01*
X48184Y27885D01*
X48213Y27892D01*
X48242Y27896D01*
X48272Y27900D01*
X48299Y27902D01*
X48311D01*
X48321Y27903D01*
X48675D01*
Y26950D01*
D02*
G37*
G36*
X17725Y29317D02*
X17327D01*
Y29266D01*
X17329Y29251D01*
X17330Y29237D01*
X17333Y29225D01*
X17334Y29217D01*
X17337Y29211D01*
X17339Y29209D01*
Y29207D01*
X17343Y29197D01*
X17350Y29189D01*
X17363Y29175D01*
X17368Y29169D01*
X17374Y29165D01*
X17377Y29162D01*
X17378Y29161D01*
X17384Y29156D01*
X17392Y29151D01*
X17401Y29144D01*
X17411Y29138D01*
X17435Y29124D01*
X17459Y29110D01*
X17481Y29097D01*
X17491Y29092D01*
X17499Y29086D01*
X17506Y29082D01*
X17512Y29079D01*
X17516Y29076D01*
X17518D01*
X17725Y28963D01*
Y28773D01*
X17540Y28869D01*
X17521Y28879D01*
X17501Y28889D01*
X17484Y28898D01*
X17468Y28907D01*
X17454Y28915D01*
X17442Y28922D01*
X17420Y28935D01*
X17405Y28945D01*
X17394Y28953D01*
X17387Y28958D01*
X17385Y28959D01*
X17370Y28972D01*
X17354Y28986D01*
X17340Y29000D01*
X17329Y29013D01*
X17319Y29024D01*
X17312Y29034D01*
X17306Y29039D01*
X17305Y29042D01*
X17296Y29007D01*
X17285Y28977D01*
X17271Y28951D01*
X17256Y28929D01*
X17243Y28913D01*
X17232Y28900D01*
X17223Y28893D01*
X17222Y28890D01*
X17220D01*
X17192Y28872D01*
X17162Y28858D01*
X17133Y28848D01*
X17105Y28842D01*
X17079Y28838D01*
X17068Y28836D01*
X17058D01*
X17051Y28835D01*
X17044D01*
X17041D01*
X17040D01*
X17007Y28836D01*
X16979Y28841D01*
X16952Y28846D01*
X16930Y28852D01*
X16913Y28859D01*
X16899Y28865D01*
X16890Y28869D01*
X16888Y28870D01*
X16865Y28884D01*
X16847Y28900D01*
X16831Y28914D01*
X16820Y28928D01*
X16810Y28941D01*
X16803Y28951D01*
X16800Y28958D01*
X16799Y28960D01*
X16795Y28972D01*
X16790Y28984D01*
X16783Y29013D01*
X16779Y29042D01*
X16775Y29072D01*
X16773Y29099D01*
Y29111D01*
X16772Y29121D01*
Y29475D01*
X17725D01*
Y29317D01*
D02*
G37*
G36*
X17155Y28642D02*
X17134Y28604D01*
X17110Y28571D01*
X17088Y28543D01*
X17078Y28531D01*
X17068Y28519D01*
X17058Y28509D01*
X17051Y28502D01*
X17044Y28495D01*
X17040Y28491D01*
X17037Y28488D01*
X17036Y28487D01*
X17725D01*
Y28336D01*
X16769D01*
Y28459D01*
X16800Y28470D01*
X16828Y28484D01*
X16854Y28499D01*
X16875Y28515D01*
X16893Y28529D01*
X16907Y28540D01*
X16916Y28549D01*
X16917Y28550D01*
X16919Y28552D01*
X16941Y28577D01*
X16959Y28601D01*
X16975Y28622D01*
X16988Y28642D01*
X16996Y28659D01*
X17003Y28670D01*
X17006Y28679D01*
X17007Y28680D01*
Y28681D01*
X17174D01*
X17155Y28642D01*
D02*
G37*
G36*
X17533Y27820D02*
X17725D01*
Y27675D01*
X17533D01*
Y27578D01*
X17373D01*
Y27675D01*
X16769D01*
Y27802D01*
X17374Y28140D01*
X17533D01*
Y27820D01*
D02*
G37*
G36*
X45417Y22285D02*
X45431Y22257D01*
X45447Y22231D01*
X45462Y22210D01*
X45476Y22192D01*
X45488Y22178D01*
X45496Y22169D01*
X45497Y22168D01*
X45499Y22167D01*
X45524Y22144D01*
X45548Y22126D01*
X45569Y22110D01*
X45589Y22097D01*
X45606Y22089D01*
X45617Y22082D01*
X45626Y22079D01*
X45627Y22078D01*
X45629D01*
Y21911D01*
X45589Y21930D01*
X45551Y21951D01*
X45519Y21975D01*
X45490Y21997D01*
X45478Y22007D01*
X45466Y22017D01*
X45457Y22027D01*
X45449Y22034D01*
X45442Y22041D01*
X45438Y22045D01*
X45435Y22048D01*
X45434Y22050D01*
Y21360D01*
X45283D01*
Y22316D01*
X45406D01*
X45417Y22285D01*
D02*
G37*
G36*
X46425Y21804D02*
Y21766D01*
X46424Y21731D01*
X46422Y21698D01*
X46421Y21669D01*
X46418Y21642D01*
X46415Y21618D01*
X46412Y21597D01*
X46409Y21577D01*
X46408Y21562D01*
X46405Y21548D01*
X46402Y21536D01*
X46400Y21527D01*
X46398Y21519D01*
X46397Y21515D01*
X46395Y21512D01*
Y21511D01*
X46383Y21483D01*
X46367Y21459D01*
X46350Y21438D01*
X46333Y21421D01*
X46319Y21407D01*
X46307Y21397D01*
X46298Y21390D01*
X46297Y21388D01*
X46295D01*
X46267Y21374D01*
X46236Y21363D01*
X46204Y21356D01*
X46174Y21350D01*
X46146Y21347D01*
X46135Y21346D01*
X46123D01*
X46115Y21345D01*
X46104D01*
X46061Y21347D01*
X46025Y21353D01*
X45992Y21362D01*
X45965Y21371D01*
X45954Y21376D01*
X45943Y21380D01*
X45934Y21384D01*
X45927Y21388D01*
X45922Y21393D01*
X45918Y21394D01*
X45916Y21397D01*
X45915D01*
X45889Y21418D01*
X45870Y21441D01*
X45854Y21464D01*
X45841Y21486D01*
X45832Y21505D01*
X45826Y21521D01*
X45824Y21527D01*
X45823Y21531D01*
X45822Y21534D01*
Y21535D01*
X45817Y21552D01*
X45815Y21572D01*
X45812Y21593D01*
X45809Y21615D01*
X45806Y21660D01*
X45803Y21706D01*
X45802Y21728D01*
Y21748D01*
X45800Y21766D01*
Y21782D01*
Y21794D01*
Y21804D01*
Y21810D01*
Y21813D01*
Y22313D01*
X45958D01*
Y21786D01*
Y21761D01*
Y21737D01*
X45960Y21715D01*
X45961Y21697D01*
Y21680D01*
X45963Y21665D01*
X45964Y21651D01*
X45965Y21639D01*
X45967Y21629D01*
X45968Y21621D01*
X45970Y21614D01*
Y21608D01*
X45972Y21603D01*
Y21600D01*
X45978Y21584D01*
X45985Y21572D01*
X45992Y21560D01*
X46001Y21550D01*
X46008Y21543D01*
X46013Y21538D01*
X46018Y21535D01*
X46019Y21534D01*
X46033Y21525D01*
X46047Y21519D01*
X46061Y21515D01*
X46075Y21512D01*
X46088Y21511D01*
X46098Y21510D01*
X46108D01*
X46130Y21511D01*
X46152Y21515D01*
X46170Y21521D01*
X46184Y21527D01*
X46197Y21532D01*
X46205Y21538D01*
X46211Y21542D01*
X46212Y21543D01*
X46226Y21558D01*
X46236Y21573D01*
X46245Y21589D01*
X46252Y21605D01*
X46256Y21620D01*
X46259Y21631D01*
X46261Y21638D01*
Y21641D01*
X46263Y21649D01*
Y21658D01*
X46264Y21680D01*
X46266Y21707D01*
Y21732D01*
X46267Y21758D01*
Y21769D01*
Y21777D01*
Y21786D01*
Y21792D01*
Y21796D01*
Y21797D01*
Y22313D01*
X46425D01*
Y21804D01*
D02*
G37*
%LPC*%
G36*
X48517Y40817D02*
X48359D01*
X48344Y40816D01*
X48318D01*
X48307Y40814D01*
X48299D01*
X48290Y40813D01*
X48279Y40812D01*
X48272Y40810D01*
X48268Y40809D01*
X48266D01*
X48255Y40805D01*
X48245Y40799D01*
X48237Y40792D01*
X48230Y40786D01*
X48224Y40781D01*
X48220Y40775D01*
X48218Y40772D01*
X48217Y40771D01*
X48211Y40759D01*
X48206Y40748D01*
X48201Y40724D01*
X48200Y40713D01*
X48199Y40704D01*
Y40699D01*
Y40697D01*
X48200Y40681D01*
X48201Y40666D01*
X48204Y40652D01*
X48207Y40642D01*
X48211Y40633D01*
X48214Y40627D01*
X48215Y40623D01*
X48217Y40621D01*
X48224Y40611D01*
X48232Y40603D01*
X48239Y40597D01*
X48248Y40592D01*
X48255Y40587D01*
X48259Y40585D01*
X48263Y40583D01*
X48265D01*
X48272Y40582D01*
X48279Y40580D01*
X48299Y40579D01*
X48321Y40576D01*
X48344D01*
X48366Y40575D01*
X48517D01*
Y40817D01*
D02*
G37*
G36*
X47023Y12032D02*
X47016D01*
X47001Y12031D01*
X46987Y12025D01*
X46974Y12018D01*
X46963Y12011D01*
X46954Y12003D01*
X46948Y11995D01*
X46944Y11990D01*
X46943Y11988D01*
X46933Y11970D01*
X46925Y11950D01*
X46919Y11928D01*
X46916Y11905D01*
X46913Y11886D01*
X46912Y11870D01*
Y11863D01*
Y11859D01*
Y11856D01*
Y11854D01*
X46913Y11823D01*
X46916Y11797D01*
X46920Y11774D01*
X46926Y11756D01*
X46932Y11742D01*
X46936Y11732D01*
X46939Y11726D01*
X46940Y11725D01*
X46951Y11712D01*
X46963Y11702D01*
X46974Y11697D01*
X46985Y11691D01*
X46995Y11688D01*
X47002Y11687D01*
X47009D01*
X47025Y11688D01*
X47040Y11694D01*
X47053Y11701D01*
X47064Y11711D01*
X47074Y11719D01*
X47081Y11726D01*
X47085Y11732D01*
X47087Y11733D01*
X47098Y11753D01*
X47105Y11776D01*
X47111Y11798D01*
X47115Y11819D01*
X47118Y11839D01*
X47119Y11856D01*
Y11862D01*
Y11866D01*
Y11869D01*
Y11870D01*
X47118Y11898D01*
X47115Y11924D01*
X47109Y11943D01*
X47104Y11960D01*
X47099Y11974D01*
X47094Y11984D01*
X47091Y11990D01*
X47089Y11991D01*
X47078Y12005D01*
X47065Y12015D01*
X47053Y12022D01*
X47042Y12026D01*
X47032Y12031D01*
X47023Y12032D01*
D02*
G37*
G36*
X48492Y12342D02*
X48334D01*
X48319Y12341D01*
X48293D01*
X48282Y12339D01*
X48274D01*
X48265Y12338D01*
X48254Y12337D01*
X48247Y12335D01*
X48243Y12334D01*
X48241D01*
X48230Y12330D01*
X48220Y12324D01*
X48212Y12317D01*
X48205Y12311D01*
X48199Y12306D01*
X48195Y12300D01*
X48193Y12297D01*
X48192Y12296D01*
X48186Y12284D01*
X48181Y12273D01*
X48176Y12249D01*
X48175Y12238D01*
X48174Y12229D01*
Y12224D01*
Y12222D01*
X48175Y12206D01*
X48176Y12191D01*
X48179Y12177D01*
X48182Y12167D01*
X48186Y12158D01*
X48189Y12152D01*
X48190Y12148D01*
X48192Y12146D01*
X48199Y12136D01*
X48207Y12128D01*
X48214Y12122D01*
X48223Y12117D01*
X48230Y12112D01*
X48234Y12110D01*
X48238Y12108D01*
X48240D01*
X48247Y12107D01*
X48254Y12105D01*
X48274Y12104D01*
X48296Y12101D01*
X48319D01*
X48341Y12100D01*
X48492D01*
Y12342D01*
D02*
G37*
G36*
X48517Y27742D02*
X48359D01*
X48344Y27741D01*
X48318D01*
X48307Y27739D01*
X48299D01*
X48290Y27738D01*
X48279Y27737D01*
X48272Y27735D01*
X48268Y27734D01*
X48266D01*
X48255Y27730D01*
X48245Y27724D01*
X48237Y27717D01*
X48230Y27711D01*
X48224Y27706D01*
X48220Y27700D01*
X48218Y27697D01*
X48217Y27696D01*
X48211Y27684D01*
X48206Y27673D01*
X48201Y27649D01*
X48200Y27638D01*
X48199Y27629D01*
Y27624D01*
Y27622D01*
X48200Y27606D01*
X48201Y27591D01*
X48204Y27577D01*
X48207Y27567D01*
X48211Y27558D01*
X48214Y27552D01*
X48215Y27548D01*
X48217Y27546D01*
X48224Y27536D01*
X48232Y27528D01*
X48239Y27522D01*
X48248Y27517D01*
X48255Y27512D01*
X48259Y27510D01*
X48263Y27508D01*
X48265D01*
X48272Y27507D01*
X48279Y27505D01*
X48299Y27504D01*
X48321Y27501D01*
X48344D01*
X48366Y27500D01*
X48517D01*
Y27742D01*
D02*
G37*
G36*
X17175Y29317D02*
X16933D01*
Y29159D01*
X16934Y29144D01*
Y29118D01*
X16936Y29107D01*
Y29099D01*
X16937Y29090D01*
X16938Y29079D01*
X16940Y29072D01*
X16941Y29068D01*
Y29066D01*
X16945Y29055D01*
X16951Y29045D01*
X16958Y29037D01*
X16964Y29030D01*
X16969Y29024D01*
X16975Y29020D01*
X16978Y29018D01*
X16979Y29017D01*
X16990Y29011D01*
X17002Y29006D01*
X17026Y29001D01*
X17037Y29000D01*
X17045Y28999D01*
X17051D01*
X17053D01*
X17069Y29000D01*
X17084Y29001D01*
X17098Y29004D01*
X17108Y29007D01*
X17117Y29011D01*
X17123Y29014D01*
X17127Y29015D01*
X17129Y29017D01*
X17139Y29024D01*
X17147Y29032D01*
X17153Y29039D01*
X17158Y29048D01*
X17162Y29055D01*
X17165Y29059D01*
X17167Y29063D01*
Y29065D01*
X17168Y29072D01*
X17170Y29079D01*
X17171Y29099D01*
X17174Y29121D01*
Y29144D01*
X17175Y29166D01*
Y29317D01*
D02*
G37*
G36*
X17373Y28000D02*
X17048Y27820D01*
X17373D01*
Y28000D01*
D02*
G37*
%LPD*%
D10*
X44975Y43250D02*
X48600D01*
X44975Y41225D02*
X48600Y41225D01*
X48600Y43250D02*
X48600Y41225D01*
X44975Y41225D02*
X44975Y43250D01*
X45025Y11300D02*
X48650D01*
X45025Y9275D02*
X48650D01*
Y11300D01*
X45025Y9275D02*
Y11300D01*
X20025Y25850D02*
Y29475D01*
X18000Y25850D02*
Y29475D01*
Y25850D02*
X20025D01*
X18000Y29475D02*
X20025D01*
X45000Y26650D02*
X48625Y26650D01*
X45000Y24625D02*
X48625Y24625D01*
X48625Y26650D01*
X45000Y26650D02*
X45000Y24625D01*
D11*
X31225Y643D02*
X46825D01*
X31225D02*
Y21043D01*
X46825D01*
Y643D02*
Y21043D01*
M02*
