M48
;Layer_Color=9474304
;FILE_FORMAT=4:3
METRIC,LZ
;TYPE=PLATED
T1F00S00C0.300
T2F00S00C0.700
T4F00S00C0.900
T5F00S00C1.200
T6F00S00C2.700
%
T01
X0065326Y0003118
X0069731Y0004543
X006584Y0010983
X00659Y0020963
X0067109Y0021188
X0066912Y0023095
X0065203Y0022143
X006191Y0023303
Y0025835
X0062Y0027475
X00615Y0029374
X00545Y0028705
X00563Y0015
X0070132Y0025635
X0075749Y00254
X0076976Y0033086
X0040625Y0031025
X0038575Y003015
X00327Y00294
Y00277
X0033Y0023651
Y0022733
X0038675Y00226
X0029443Y0025266
X0027739Y0026776
X0027Y0021188
X00254Y0021225
X0024093Y0023791
X0020575Y0025176
X0018573Y00252
X0016652Y0025125
X001515Y0021225
X001908Y0017973
Y0014973
X002358Y00159
Y00169
Y00179
X00269Y00176
Y00187
X00288Y0018403
X0028132Y00161
X0029275Y000935
X0029375Y0007505
X0027075Y0007275
X0025775Y0007425
X0024775Y000725
X0022925Y00091
Y0010075
X0026575Y0009425
X00189Y000885
X00181Y000175
X001264Y0010675
X0035383Y0009708
X00372
X00384
X00396Y0009716
Y0007222
X00384Y0007215
X00372
X0035383
X00365Y0012777
X00372Y0012106
X0031325Y0003925
X0047773Y0008275
X005
X00497Y00166
Y00177
Y00188
X00476
Y00177
Y00166
X00316Y0033536
X00306
X0022541Y0032706
X00206Y00303
X00089Y00172
Y00154
X00087Y0010675
X0032775Y0040875
X0028981Y0044925
X00496Y0040975
X0049625Y0038875
X0053552Y0038
X006265Y00365
X0061575Y0044405
X006052Y0048175
X0063895Y0047045
T02
X00136Y0013975
Y0018625
T04
X005056Y0004588
X00531
X005564
X005818
Y0012208
X005564
X00531
X005056
X0045345Y0019643
X0042805
X0040265
X0037725
X0035185
X0032645
X003341Y0001625
X003595
X003849
X004103
X004357
X004611
X0028443Y0002147
Y0004687
X0025903
X0023363
Y0002147
X0025903
T05
X00755Y000975
X0078
X0080357Y002375
Y002625
X00775Y00403
X0075
X00725
X007
T06
X0087038Y0003019
X0003038
Y0047019
X0087038
M30
